<svg width="862" height="422" viewBox="0 0 862 422" fill="none" xmlns="http://www.w3.org/2000/svg">
<path d="M782.499 114.314C781.603 111.785 783.645 108.432 784.478 106.06C785.577 102.919 786.857 99.8645 788.247 96.8411C791.09 90.6451 794.184 84.4963 797.937 78.795C805.194 67.7774 814.264 58.6365 823.64 49.4722C827.865 45.3415 832.129 41.148 836.645 37.3394C837.336 36.7582 839.283 34.9678 839.747 34.9835C841.089 35.007 840.681 35.1013 840.948 36.2556C841.176 37.2216 840.972 38.6194 841.003 39.5931C841.129 42.9149 841.364 46.2367 841.451 49.5585C841.796 63.2384 840.257 76.8946 838.105 90.3938C836.998 97.3672 835.577 103.979 833.841 110.827C832.058 117.863 831.218 125.104 829.514 132.179C829.318 132.996 831.564 132.666 831.752 131.897C833.456 124.821 834.297 117.581 836.079 110.544C837.878 103.461 839.307 96.5898 840.461 89.373C842.825 74.5702 844.223 59.6417 843.532 44.6426C843.453 42.9935 843.335 41.3444 843.265 39.6952C843.202 38.1482 843.579 36.1064 843.178 34.583C842.864 33.3893 842.542 32.9496 841.215 33.0045C839.503 33.0752 837.744 34.7008 836.48 35.6667C833.582 37.8655 830.991 40.4884 828.321 42.9542C817.908 52.5583 807.809 62.3117 799.367 73.7377C794.474 80.3578 790.54 87.5118 787.03 94.9407C785.365 98.4588 783.786 102.024 782.475 105.699C781.517 108.393 779.263 112.076 780.268 114.919C780.535 115.688 782.758 115.052 782.499 114.314Z" fill="#272525"/>
<path d="M779.968 115.665C785.976 116.984 791.12 119.89 796.758 122.316C802.412 124.751 808.066 127.177 813.697 129.659C817.906 131.52 822.955 135.635 827.699 135.745C830.157 135.808 830.549 134.512 831.02 132.321C831.201 131.488 828.955 131.834 828.782 132.604C828.225 135.164 827.267 134.386 824.872 133.287C822.893 132.384 821.039 131.174 819.068 130.224C814.718 128.127 810.226 126.329 805.797 124.405C797.763 120.918 789.847 116.317 781.319 114.448C780.62 114.298 778.704 115.39 779.968 115.665Z" fill="#272525"/>
<path d="M806.007 64.3849C805.937 64.542 805.874 64.6991 805.803 64.8483C806.4 64.597 807.005 64.3535 807.602 64.1022C802.285 63.5132 796.937 62.5473 791.613 63.9295C786.728 65.1938 782.37 67.903 778.86 71.4918C774.635 75.8188 771.29 81.2059 768.172 86.3575C765.18 91.3205 761.049 97.2102 760.712 103.163C760.704 103.351 760.759 103.485 760.939 103.563C763.923 104.898 767.19 104.215 770.355 104.16C772.043 104.129 773.732 104.113 775.42 103.995C778.043 103.807 780.697 102.786 783.305 102.77C784.145 102.762 785.676 101.49 784.176 101.506C780.792 101.529 777.619 102.707 774.227 102.849C771.69 102.951 768.839 103.32 766.311 103.139C763.382 102.927 762.785 101.875 763.554 99.3384C764.143 97.3909 765.164 95.6082 766.122 93.8256C767.677 90.9357 769.24 88.0537 770.968 85.258C774.391 79.7296 778.059 73.7142 783.163 69.5679C790.184 63.8666 797.809 64.4007 806.235 65.3273C806.871 65.398 807.751 65.2331 808.033 64.5813C808.104 64.4242 808.167 64.2671 808.238 64.1179C808.544 63.419 806.329 63.6546 806.007 64.3849Z" fill="#272525"/>
<path d="M841.089 76.8083C847.332 82.0933 853.473 88.5092 856.756 96.0873C860.078 103.76 859.057 112.147 858.114 120.235C857.667 124.114 856.866 127.695 855.837 131.465C855.625 132.234 855.444 135.203 854.879 135.886C853.277 137.81 850.96 134.944 849.83 134.025C843.767 129.117 838.089 123.84 833.896 117.212C833.503 116.591 831.328 117.306 831.823 118.083C834.422 122.183 837.548 125.819 841.081 129.14C844.215 132.085 847.694 135.603 851.322 137.92C857.321 141.744 858.091 131.292 859.01 127.915C860.266 123.266 860.879 118.193 861.161 113.387C861.428 108.84 861.727 103.508 860.415 99.1264C857.635 89.8128 850.426 82.0776 843.178 75.9445C842.566 75.4262 840.477 76.29 841.089 76.8083Z" fill="#272525"/>
<path d="M829.741 67.1177C826.412 63.4268 819.572 65.0288 816.022 67.6282C810.58 71.6096 812.48 79.0149 817.506 82.3838C822.124 85.4779 828.273 86.3417 830.919 80.3264C832.152 77.5307 832.45 74.3267 831.689 71.3819C831.225 69.5992 830.582 66.411 828.705 65.5471C828.045 65.2409 826.003 66.2068 826.922 66.6308C828.987 67.581 829.993 73.3844 829.898 75.324C829.812 76.9967 829.419 78.795 828.76 80.3342C828.579 80.8839 828.312 81.3944 827.959 81.8577C826.309 82.3289 824.66 82.8 823.011 83.2712C822.273 83.1848 821.221 82.4074 820.585 82.0619C817.247 80.2164 814.342 76.7297 814.962 72.6697C815.739 67.5967 823.836 63.7488 827.668 67.9972C828.186 68.5705 830.314 67.7617 829.741 67.1177Z" fill="#272525"/>
<path d="M820.426 96.0714C818.808 92.4276 811.332 92.2784 808.183 93.5977C805.615 94.6736 802.992 97.0609 801.956 99.668C800.55 103.21 803.346 106.524 805.796 108.903C809.699 112.696 816.531 115.452 820.575 110.372C822.75 107.631 823.041 104.466 822.099 101.286C821.415 98.9691 821.086 95.8829 818.58 94.8149C817.913 94.5322 815.879 95.506 816.806 95.8986C819.075 96.8646 820.756 102.919 820.552 105.189C820.489 105.919 820.167 106.783 819.931 107.474C819.083 109.924 818.926 109.916 816.091 110.741C813.358 111.534 813.209 111.581 811.12 110.356C809.966 109.681 808.851 108.958 807.877 108.024C806.613 106.806 805.545 105.33 804.641 103.822C802.922 100.956 804.359 98.1838 806.707 96.1107C808.898 94.171 816.499 92.8281 818.196 96.6682C818.533 97.4457 820.724 96.7546 820.426 96.0714Z" fill="#272525"/>
<path d="M791.528 119.756C789.556 122.905 787.373 125.787 784.947 128.598C783.847 129.871 779.952 133.883 780.502 135.862C780.973 137.551 784.578 137.802 785.913 138.218C790.452 139.64 794.928 141.218 799.451 142.687C802.985 143.833 806.378 145.27 809.872 146.464C811.034 146.856 812.401 147.477 813.5 146.644C815.204 145.349 814.984 141.218 815.196 139.412C815.605 135.933 816.359 132.478 815.95 128.967C815.864 128.206 813.814 128.779 813.712 129.407C813.704 129.478 813.689 129.541 813.681 129.611C813.547 130.475 815.793 130.09 815.919 129.329C815.927 129.258 815.942 129.195 815.95 129.125C815.204 129.274 814.458 129.415 813.712 129.564C814.089 132.76 813.437 135.855 813.037 139.011C812.864 140.378 812.785 141.752 812.573 143.111C812.573 143.111 811.49 146.597 812.762 145.616C812.126 146.11 806.37 143.283 805.262 142.914C802.137 141.886 798.996 140.912 795.886 139.844C793.153 138.909 790.412 137.998 787.672 137.095C786.777 136.805 784.986 136.506 784.177 135.949C783.439 136.067 783.148 135.745 783.313 134.983C783.046 134.355 783.172 133.813 783.682 133.342C784.641 130.836 786.989 128.803 788.661 126.792C790.499 124.593 792.101 122.23 793.616 119.803C794.15 118.931 791.912 119.136 791.528 119.756Z" fill="#272525"/>
<path d="M791.715 144.611C785.503 142.106 777.98 150.728 775.766 155.597C775.546 156.076 776.551 156.092 776.732 156.076C777.721 155.982 778.074 155.785 779.025 155.479C778.703 155.581 783.045 154.168 783.336 154.419C784.553 155.44 781.663 162.476 781.428 163.921C780.964 166.74 781.412 169.285 781.836 172.08C782.064 173.572 782.095 178.096 783.344 179.211C785.488 181.119 788.315 176.541 789.186 175.559C791.228 173.266 793.466 170.887 795.312 168.452C796.976 166.253 797.785 163.78 798.932 161.322C798.264 161.549 797.597 161.777 796.921 162.005C799.874 163.081 798.775 167.549 801.138 168.758C801.641 169.018 802.544 168.774 802.921 168.405C804.664 166.685 804.837 163.151 804.602 160.866C804.138 156.288 802.026 151.278 798.5 148.262C796.874 146.872 793.607 144.022 791.322 144.595C788.739 145.247 787.451 149.668 787.231 151.867C787.184 152.354 787.859 152.401 788.197 152.346C790.16 152.024 791.731 151.144 793.474 150.155C792.869 150.092 792.265 150.029 791.66 149.966C791.613 154.128 787.16 157.419 786.72 161.73C786.697 161.942 786.783 162.021 786.948 162.131C791.998 165.562 801.068 150.194 795.83 146.864C795.217 146.472 793.152 147.375 794.047 147.948C798.037 150.477 790.545 161.856 789.014 160.788C788.228 160.238 793.867 151.521 793.882 149.684C793.89 148.851 792.469 149.267 792.068 149.495C791.746 149.676 789.241 150.979 788.48 151.113C788.801 151.27 789.124 151.435 789.446 151.592C789.634 149.652 790.482 146.456 792.288 145.443C791.762 145.514 791.236 145.584 790.702 145.655C795.21 147.681 798.948 150.775 800.73 155.463C801.9 158.526 803.981 165.217 801.099 168.052C801.696 167.934 802.293 167.816 802.882 167.698C802.026 167.258 801.468 164.479 801.044 163.63C800.432 162.405 800.023 161.439 798.665 160.945C797.997 160.701 796.976 160.945 796.654 161.628C795.021 165.138 793.568 167.785 791.079 170.706C788.959 173.203 786.893 176.918 784.168 178.692C784.694 178.622 785.221 178.551 785.755 178.48C784.655 178.009 784.435 174.35 784.262 173.368C783.783 170.698 783.179 167.62 783.422 164.918C783.752 161.314 786.454 157.081 785.778 153.539C785.739 153.351 785.495 153.28 785.346 153.233C782.558 152.377 779.708 154.631 776.999 154.882C777.32 155.039 777.643 155.204 777.965 155.361C779.433 152.134 785.676 144.029 789.901 145.734C790.608 145.961 792.642 144.988 791.715 144.611Z" fill="#272525"/>
<path d="M817.102 66.662C815.665 68.0048 816.026 70.7219 816.018 72.5124C816.01 74.6563 815.445 78.1665 816.686 80.0512C816.96 80.4674 818.405 79.9805 818.068 79.4701C817.086 77.978 817.542 75.1432 817.518 73.4705C817.494 71.9392 816.96 68.154 818.288 66.9133C818.924 66.3164 817.463 66.3243 817.102 66.662Z" fill="#272525"/>
<path d="M821.525 66.8032C821.54 66.7325 821.556 66.6619 821.58 66.5833C821.713 66.0336 820.213 66.2614 820.088 66.7718C818.831 71.8605 817.92 77.5618 818.839 82.7997C818.925 83.2944 819.978 82.9096 820.182 82.7211C820.574 82.3678 820.59 82.3442 820.716 81.8259C820.849 81.2762 819.349 81.5039 819.224 82.0144C819.145 82.1714 819.067 82.3206 818.98 82.4777C819.428 82.4541 819.876 82.4227 820.323 82.3992C819.412 77.2162 820.331 71.6249 821.572 66.5833C821.077 66.6462 820.582 66.709 820.08 66.7718C820.064 66.8425 820.048 66.9132 820.025 66.9917C819.907 67.5414 821.407 67.3137 821.525 66.8032Z" fill="#272525"/>
<path d="M823.693 66.0102C821.855 71.0361 820.457 77.4598 821.258 82.8233C821.337 83.3338 822.687 82.949 822.75 82.5328C822.758 82.4699 822.774 82.3993 822.782 82.3364C822.868 81.7553 821.368 82.0145 821.29 82.5249C821.282 82.5877 821.266 82.6584 821.258 82.7212C821.753 82.627 822.248 82.5249 822.75 82.4307C821.957 77.1299 823.371 70.7848 825.185 65.8296C825.357 65.327 823.873 65.5076 823.693 66.0102Z" fill="#272525"/>
<path d="M826.47 66.0496C825.724 69.7561 825.072 73.4863 824.695 77.2479C824.507 79.1326 823.556 82.1324 824.075 83.915C824.224 84.4333 825.716 84.0328 825.567 83.5145C825.268 82.4779 825.842 80.8367 825.952 79.7765C826.077 78.4808 826.171 77.1772 826.313 75.8814C826.69 72.5204 827.294 69.1829 827.962 65.8689C828.072 65.3035 826.572 65.547 826.47 66.0496Z" fill="#272525"/>
<path d="M828.109 68.3111C827.536 70.7926 827.127 73.3056 826.86 75.8421C826.585 78.4493 826.782 81.0407 826.303 83.6322C826.193 84.2055 827.677 83.9385 827.795 83.4437C827.81 83.373 827.826 83.3024 827.842 83.2317C827.975 82.682 826.475 82.9097 826.35 83.4202C826.334 83.4908 826.318 83.5615 826.303 83.6322C826.797 83.5694 827.292 83.5065 827.795 83.4437C828.282 80.8287 828.07 78.2686 828.352 75.6536C828.627 73.125 829.028 70.6042 829.601 68.1226C829.727 67.5729 828.227 67.8007 828.109 68.3111Z" fill="#272525"/>
<path d="M805.694 96.5584C805.71 96.4878 805.726 96.4171 805.749 96.3464C805.255 96.4092 804.76 96.4721 804.257 96.5349C803.605 99.3619 804.32 102.205 804.124 105.063C804.116 105.189 804.155 105.275 804.273 105.33C804.352 105.369 804.43 105.401 804.509 105.44C804.948 105.644 806.307 105.008 805.694 104.718C805.514 104.631 805.561 101.404 805.545 101.105C805.435 99.4954 805.38 97.9249 805.749 96.3464C805.875 95.7967 804.383 96.0323 804.257 96.5349C804.242 96.6056 804.226 96.6762 804.202 96.7469C804.069 97.2966 805.569 97.0689 805.694 96.5584Z" fill="#272525"/>
<path d="M807.852 94.8856C806.517 96.2834 806.635 98.2388 806.431 100.053C806.109 102.974 805.41 105.762 806.038 108.683C806.148 109.194 807.46 108.809 807.53 108.393C807.538 108.33 807.554 108.259 807.562 108.196C807.656 107.623 806.156 107.874 806.07 108.385C806.062 108.448 806.046 108.518 806.038 108.581C806.533 108.487 807.028 108.385 807.53 108.291C806.981 105.731 807.476 103.312 807.805 100.767C808.033 99.0555 807.758 96.4798 809.046 95.1369C809.643 94.5008 808.19 94.5244 807.852 94.8856Z" fill="#272525"/>
<path d="M809.385 94.6814C809.416 97.4378 809.275 100.194 809.463 102.943C809.644 105.542 809.141 108.306 809.785 110.843C809.919 111.361 811.05 110.953 811.223 110.662C811.262 110.599 811.301 110.536 811.34 110.466C811.694 109.869 810.202 110.01 809.95 110.434C809.911 110.497 809.872 110.56 809.833 110.631C810.312 110.568 810.791 110.505 811.27 110.45C810.649 108.024 811.128 105.087 810.948 102.55C810.751 99.8015 810.893 97.0451 810.869 94.2887C810.869 93.8175 809.377 94.1003 809.385 94.6814Z" fill="#272525"/>
<path d="M812.753 94.7598C811.764 100.155 811.787 106.736 812.659 112.146C812.745 112.672 814.065 112.256 814.151 111.856C814.182 111.691 814.222 111.518 814.253 111.353C814.371 110.796 812.871 111.031 812.761 111.542C812.73 111.706 812.69 111.879 812.659 112.044C813.154 111.95 813.648 111.848 814.151 111.754C813.287 106.366 813.248 99.982 814.245 94.5792C814.347 94.0059 812.847 94.2494 812.753 94.7598Z" fill="#272525"/>
<path d="M816.043 93.9983C815.941 99.8173 815.022 105.464 815.399 111.29C815.422 111.369 815.477 111.416 815.548 111.448C815.627 111.487 815.697 111.518 815.776 111.557C816.216 111.762 817.574 111.133 816.962 110.835C815.87 110.317 816.812 103.398 816.883 102.519C817.127 99.6053 817.48 96.7311 817.535 93.802C817.543 93.1973 816.051 93.5036 816.043 93.9983Z" fill="#272525"/>
<path d="M818.855 96.5349C818.612 100.783 818.926 105.236 818.243 109.437C818.148 110.011 819.648 109.759 819.735 109.249C820.41 105.055 820.096 100.595 820.347 96.3465C820.379 95.7418 818.887 96.0323 818.855 96.5349Z" fill="#272525"/>
<path d="M826.394 44.7841C828.75 47.2814 831.231 49.5273 834.373 50.9565C836.689 52.0167 839.398 52.1973 841.566 53.4538C841.911 53.658 842.477 53.4302 842.759 53.2182C842.869 53.1318 842.971 53.0533 843.081 52.9669C843.749 52.4486 842.265 52.425 841.888 52.7235C841.778 52.8098 841.676 52.8884 841.566 52.9748C841.966 52.8962 842.359 52.8177 842.759 52.7392C840.702 51.5455 838.228 51.3963 836.022 50.4382C832.763 49.0326 830.21 46.7631 827.792 44.203C827.423 43.8261 826.009 44.3679 826.394 44.7841Z" fill="#272525"/>
<path d="M833.501 40.8259C832.174 41.3127 831.577 42.1137 830.744 43.2524C831.208 43.2603 831.671 43.276 832.134 43.2838C832.794 42.1216 833.54 40.9986 834.372 39.9463C834.804 39.3966 833.328 39.5773 833.084 39.805C831.773 41.03 830.422 42.1687 829.244 43.5194C829.708 43.5273 830.171 43.543 830.634 43.5508C831.247 42.6792 832.024 41.9724 832.967 41.4227C832.566 41.3834 832.166 41.3363 831.757 41.297C831.781 42.0509 831.553 42.7263 831.058 43.3388C830.666 44.022 832.134 43.6372 832.346 43.4802C833.422 42.6635 834.082 41.407 835.126 40.6295C834.679 40.6217 834.231 40.6138 833.783 40.5981C833.32 42.0352 832.425 43.3938 831.663 44.6895C831.278 45.3413 832.786 45.0272 833.053 44.7209C834.592 42.9383 835.605 40.7709 837.121 39.0354C836.642 39.0589 836.163 39.0904 835.684 39.1139C835.668 40.7866 834.757 41.9331 834.09 43.4016C833.438 44.8152 833.139 46.3622 832.15 47.5951C832.613 47.6029 833.077 47.6187 833.54 47.6265C834.561 45.734 835.621 43.8728 836.642 41.9645C837.396 40.551 838.142 38.2187 839.17 37.025C838.691 37.0486 838.212 37.08 837.733 37.1036C837.286 41.1321 834.796 44.4932 833.595 48.2783C833.564 48.3882 833.65 48.506 833.744 48.5453C837.058 49.8489 839.296 39.5929 840.427 38.2501C839.948 38.2737 839.469 38.3051 838.99 38.3286C838.982 41.9331 835.825 44.9329 835.432 48.506C835.362 49.15 836.681 48.7181 836.87 48.4275C838.762 45.5298 839.249 42.0195 840.945 39.0197C840.466 39.0433 839.987 39.0746 839.508 39.0982C838.982 41.2028 838.236 43.2289 837.694 45.3099C838.189 45.2471 838.684 45.1842 839.186 45.1214C839.524 43.6922 842.005 38.2501 838.715 38.682C837.466 38.8469 836.493 40.1976 835.723 41.03C834.082 42.8205 833.037 44.9408 831.561 46.8412C832.024 46.8491 832.488 46.8648 832.951 46.8726C833.838 45.5612 834.828 43.8178 833.728 42.3336C833.187 41.5954 832.26 41.1478 831.396 41.6818C827.831 43.9042 835.629 49.1421 836.87 50.1316C837.301 49.9117 837.726 49.6997 838.157 49.4798C835.817 47.9092 833.493 44.9486 830.642 44.2968C830.328 44.2262 829.496 44.3675 829.441 44.7916C829.189 46.7391 832.92 48.8044 834.388 47.1553C836.014 45.3256 831.537 43.5901 830.234 43.5116C829.912 43.4958 829.433 43.6372 829.252 43.9199C827.525 46.5428 832.001 47.9328 833.901 48.1526C834.239 48.1919 835.032 48.1055 835.103 47.6579C835.613 44.5168 825.577 44.2969 831.64 49.6369C832.739 50.6028 834.922 52.0006 836.116 50.4143C837.411 48.6866 834.105 43.9356 832.448 43.4409C830.438 42.8441 830.108 44.556 830.713 46.0952C831.585 48.3097 834.796 51.8121 837.521 51.2467C841.793 50.3593 838.346 42.742 836.32 46.3543C835.456 47.9014 836.43 50.909 838.511 50.3593C841.33 49.6133 841.063 44.4696 840.074 42.5535C839.893 42.208 839.32 42.3258 839.037 42.4436C837.058 43.2917 836.956 48.7181 839.053 49.4327C839.461 49.574 840.074 49.4641 840.341 49.0871C841.778 47.0768 842.202 43.6922 841.762 41.3049C841.668 40.8101 840.301 41.1635 840.27 41.5955C840.16 43.166 840.278 44.6345 840.403 46.213C840.521 47.6186 840.199 49.3149 840.812 50.5871C841.032 51.0425 841.872 50.752 842.155 50.5085C842.979 49.7861 843.034 49.0322 842.17 48.2862C841.817 47.9877 841.197 48.2155 840.882 48.4589C840.168 49.0008 839.335 49.9588 838.393 49.8175C838.087 50.0845 837.788 50.3593 837.482 50.6263C838.958 50.8305 840.325 50.5792 841.825 50.697C842.217 50.7284 843.403 50.0531 842.571 49.8724C840.906 49.5034 839.516 48.4118 837.867 48.1919C837.6 48.1605 836.336 48.3804 836.72 48.8908C837.718 50.218 842.068 52.1184 843.529 50.6185C843.647 50.5007 843.749 50.3593 843.623 50.2023C842.532 48.8594 840.089 47.6422 838.589 49.2049C836.862 51.0033 839.54 51.8278 840.969 52.0399C841.338 52.0948 841.888 51.9849 842.115 51.6472C842.618 50.9012 842.414 49.8803 842.563 48.9615C842.641 48.4825 841.738 48.6474 841.526 48.7495C840.317 49.3384 838.456 50.3279 837.223 49.1971C836.147 48.2155 838.04 44.6424 838.338 44.0377C839.296 42.0745 840.545 40.2526 840.176 37.9909C840.081 37.4255 838.919 37.9517 838.739 38.1716C837.435 39.7421 837.294 41.7054 836.846 43.6372C836.713 44.2262 838.11 43.8885 838.283 43.5587C839.697 40.873 841.204 38.0067 841.581 34.9597C841.644 34.465 840.772 34.6613 840.545 34.7477C837.812 35.8078 836.697 39.5458 834.443 41.2656C834.875 41.3127 835.307 41.3599 835.731 41.407C836.469 40.0641 837.623 38.627 838.684 37.5747C839.375 36.8837 840.066 36.491 840.505 35.5958C840.812 34.9676 839.595 35.1953 839.351 35.3602C837.443 36.6245 835.786 38.3286 833.752 39.3966C834.137 39.4751 834.522 39.5537 834.906 39.6322C835.464 38.5407 836.705 37.5512 837.639 36.8287C837.192 36.8209 836.744 36.813 836.296 36.7973C835.888 37.7946 834.844 38.6035 834.05 39.2945C833.383 39.8756 834.891 39.805 835.244 39.538C836.163 38.8469 836.783 37.9674 837.639 37.2449C838.841 36.2319 839.602 35.2424 839.453 37.559C839.351 39.1846 838.754 40.6845 838.77 42.3336C838.778 42.8283 840.176 42.4514 840.262 42.0431C840.608 40.4018 841.039 38.7841 841.416 37.1507C840.922 37.2135 840.427 37.2763 839.924 37.3392C839.704 39.8364 839.877 42.6477 840.27 45.1528C840.348 45.6711 841.683 45.2706 841.762 44.8623C842.06 43.2681 843.097 39.5066 841.778 38.0773C841.432 37.7082 840.505 38.0538 840.341 38.4621C839.296 41.0143 839.61 43.9827 839.241 46.6841C839.163 47.2888 840.608 46.9669 840.733 46.4957C841.409 43.9749 842.579 40.7787 840.859 38.3993C840.639 38.1009 839.924 38.3208 839.705 38.47C838.723 39.1218 838.794 39.7264 838.417 40.8651C837.584 43.4095 836.925 45.9146 836.312 48.5296C836.186 49.0793 837.686 48.8516 837.804 48.3411C838.236 46.4957 838.589 44.6031 839.163 42.797C839.43 41.9488 839.854 39.4202 840.631 38.9019C840.246 38.9254 839.862 38.949 839.477 38.9726C841.087 41.2028 839.869 44.3204 839.241 46.6684C839.736 46.6056 840.231 46.5428 840.733 46.48C841.102 43.7864 840.788 40.8023 841.833 38.258C841.354 38.3836 840.875 38.5171 840.396 38.6427C841.495 39.8285 840.529 43.7079 840.278 45.035C840.773 44.9408 841.267 44.8387 841.77 44.7445C841.432 42.5692 841.228 39.3495 841.424 37.1428C841.479 36.5303 840.042 36.8523 839.932 37.3313C839.555 38.9647 839.131 40.5824 838.778 42.2237C839.273 42.1294 839.767 42.0274 840.27 41.9331C840.254 40.7002 842.186 35.5016 840.168 34.7791C838.032 34.0095 835.181 38.4543 834.066 39.2945C834.467 39.3731 834.859 39.4594 835.26 39.538C836.226 38.6977 837.309 37.8182 837.804 36.6088C838.04 36.0277 836.61 36.4596 836.461 36.5774C835.417 37.3863 834.145 38.3993 833.532 39.5929C833.202 40.2447 834.451 39.9542 834.686 39.8285C836.728 38.7605 838.37 37.0643 840.286 35.7921C839.901 35.7136 839.516 35.6351 839.131 35.5565C838.589 36.6638 837.482 37.2135 836.689 38.093C835.849 39.0197 834.953 40.2683 834.357 41.3677C833.98 42.0588 835.425 41.674 835.645 41.5091C837.592 40.0249 838.841 36.2476 841.142 35.3602C840.796 35.2895 840.451 35.2189 840.105 35.1482C839.736 38.1166 838.283 40.9122 836.909 43.5273C837.388 43.5037 837.867 43.4723 838.346 43.4487C838.77 41.619 838.896 39.7029 840.136 38.203C839.657 38.2658 839.178 38.3286 838.699 38.3836C839.225 41.6426 833.461 46.9904 836.053 50.1159C837.694 52.1027 840.49 50.1551 842.131 49.3541C841.786 49.2835 841.44 49.2128 841.094 49.1421C840.922 49.5897 840.749 50.0374 840.576 50.485C840.529 50.5635 840.482 50.7206 840.576 50.7912C840.631 51.0661 840.694 51.3409 840.749 51.6158C841.134 51.4823 841.519 51.3566 841.895 51.2231C840.804 51.0582 842.123 50.5635 841.958 50.2023C841.935 50.1473 840.93 49.8332 840.505 49.6683C839.704 49.362 838.652 48.9929 838.118 48.294C837.733 48.5296 837.356 48.7573 836.972 48.9929C838.503 49.1892 840.105 50.3201 841.676 50.6735C841.927 50.3986 842.17 50.1237 842.422 49.8489C841.079 49.7389 839.752 49.9981 838.409 49.8096C837.945 49.7468 836.65 50.4928 837.498 50.6185C839.673 50.9483 840.474 49.9353 842.092 48.7024C841.66 48.7573 841.236 48.8123 840.804 48.8751C840.859 49.3384 840.922 49.8018 840.977 50.2651C841.424 50.2415 841.872 50.2101 842.32 50.1866C841.872 49.2599 842.068 48.0663 842.005 47.0847C841.895 45.1607 841.636 43.3467 841.77 41.3991C841.275 41.4934 840.78 41.5955 840.278 41.6897C840.67 43.8335 840.262 47.2103 838.958 49.04C839.39 48.9222 839.814 48.8123 840.246 48.6945C839.108 48.3097 838.448 43.5508 839.634 43.0404C839.288 43.0011 838.943 42.9697 838.597 42.9304C839.288 44.2576 839.493 45.8596 839.116 47.3281C838.77 48.6867 837.993 50.1787 837.663 47.9171C837.38 46.0009 837.757 46.3386 837.883 47.7757C837.922 48.1919 838.236 49.2442 837.961 49.6212C836.964 50.9954 835.079 49.2363 834.349 48.5924C833.98 48.2704 831.514 44.7916 831.891 44.6974C832.433 44.556 834.467 47.8935 834.577 48.3176C835.315 51.0111 832.841 49.1028 832.032 48.0034C830.045 45.3256 833.87 46.3151 833.619 47.8307C834.019 47.6658 834.419 47.5009 834.82 47.336C834.726 47.3281 829.079 45.7182 830.603 44.6581C830.65 44.6267 831.875 45.1999 831.954 45.2785C833.501 46.8805 830.721 46.37 830.948 44.6031C830.548 44.768 830.147 44.933 829.747 45.0979C832.488 45.7261 834.726 48.6709 836.995 50.1944C837.349 50.43 838.691 49.8646 838.283 49.5426C836.689 48.2783 834.891 47.281 833.603 45.6633C832.935 44.8309 832.362 43.7157 832.433 43.2838C833.006 43.4645 833.077 43.9749 832.645 44.8073C832.401 45.5455 832.048 46.2208 831.585 46.8334C831.192 47.4145 832.692 47.226 832.975 46.8648C833.995 45.5533 836.045 40.7866 837.749 40.4568C838.048 39.7971 838.299 39.7736 838.511 40.3861C838.856 40.6609 838.911 40.9908 838.66 41.3677C838.723 42.5142 837.985 44.1712 837.718 45.302C837.584 45.8518 839.076 45.6161 839.21 45.1136C839.752 43.0247 840.498 41.0143 841.024 38.9019C841.173 38.3129 839.759 38.6663 839.587 38.9804C837.898 41.9724 837.404 45.4984 835.511 48.3882C835.99 48.3647 836.469 48.3333 836.948 48.3097C837.341 44.7288 840.498 41.7682 840.505 38.1323C840.505 37.457 839.288 37.9438 839.068 38.2108C837.93 39.5615 837.624 41.4305 836.956 43.0325C836.548 44.0063 835.063 45.9852 834.961 47.0061C834.828 48.349 835.613 46.692 835.982 46.1345C836.493 45.357 836.728 44.234 837.097 43.3781C838.008 41.2735 838.99 39.2239 839.249 36.9151C839.328 36.2397 838.008 36.758 837.812 36.9936C836.634 38.36 836.139 40.3625 835.283 41.9331C834.255 43.8257 833.194 45.7104 832.181 47.5951C831.82 48.2626 833.312 47.9485 833.571 47.6265C834.482 46.4878 834.741 45.2314 835.307 43.9121C836.053 42.1766 837.199 40.8887 837.215 38.9254C837.223 38.2501 836.006 38.7448 835.778 39.004C834.262 40.7395 833.249 42.9069 831.71 44.6895C832.174 44.6973 832.637 44.7131 833.1 44.7209C833.917 43.3309 834.828 41.9488 835.323 40.4175C835.519 39.805 834.137 40.2683 833.98 40.3861C832.904 41.1871 832.291 42.4043 831.2 43.2367C831.632 43.2838 832.064 43.3309 832.488 43.3781C832.927 42.6085 833.202 42.0274 833.289 41.1243C833.344 40.551 832.323 40.873 832.079 40.9986C830.854 41.6269 830.147 42.4593 829.284 43.5351C828.86 44.0691 830.375 43.9121 830.674 43.5665C831.789 42.2865 833.084 41.2185 834.325 40.0641C833.893 40.017 833.461 39.9699 833.037 39.9228C832.213 40.9751 831.459 42.098 830.799 43.2603C830.438 43.8964 831.922 43.6451 832.189 43.2917C832.676 42.5142 833.328 41.9017 834.152 41.4462C835.063 41.0772 834.176 40.5746 833.501 40.8259Z" fill="#272525"/>
<path d="M768.376 141.171C760.915 145.796 757.067 155.204 753.212 162.703C748.68 171.514 744.306 180.514 740.364 189.608C739.155 192.403 731.388 210.41 736.901 210.779C737.349 210.811 738.338 210.559 738.456 210.002C738.503 209.798 738.542 209.586 738.589 209.381C738.762 208.549 736.516 208.894 736.351 209.664C736.304 209.868 736.265 210.08 736.218 210.284C736.736 210.025 737.254 209.766 737.773 209.507C735.181 209.334 741.848 191.053 742.704 189.097C746.482 180.412 750.652 171.836 754.963 163.402C758.677 156.146 762.565 146.299 769.766 141.83C771.046 141.045 769.098 140.723 768.376 141.171Z" fill="#272525"/>
<path d="M765.967 169.654C759.967 180.616 752.546 191.375 749.005 203.445C748.793 204.167 750.301 203.885 750.56 203.767C751.251 203.453 751.541 203.311 751.628 202.518C751.722 201.631 749.476 202.039 749.39 202.801C749.484 202.817 749.578 202.832 749.672 202.848C750.191 202.958 750.709 203.06 751.227 203.17C754.73 191.241 762.096 180.546 768.032 169.709C768.559 168.774 766.321 169.002 765.967 169.654Z" fill="#272525"/>
<path d="M71.503 304.319C64.239 288.284 55.4673 272.798 43.2874 259.95C31.9634 248.006 18.2365 238.551 3.12741 232.057C2.77403 231.908 2.07512 232.057 1.94162 232.457C0.355329 237.138 1.1956 242.43 1.67463 247.244C2.20077 252.529 3.00178 257.783 4.06978 262.982C6.1508 273.12 9.25271 283.046 13.3362 292.548C17.3177 301.822 22.2415 310.704 28.0369 318.973C29.474 321.023 30.9582 323.041 32.5131 325.004C33.5183 326.276 34.2643 327.313 35.9998 327.242C39.942 327.093 44.7166 324.69 48.2583 323.096C53.1271 320.913 57.7603 318.211 62.0559 315.047C66.3279 311.905 70.3643 308.364 72.3747 303.338C72.5396 302.914 71.2281 303.063 71.0554 303.503C67.4666 312.51 56.5903 318.51 48.2112 322.342C45.9103 323.394 43.5544 324.337 41.1514 325.138C38.6149 325.986 36.149 327.038 34.0523 324.886C31.0054 321.761 28.5474 317.536 26.1915 313.884C16.3204 298.587 9.38621 281.428 5.60894 263.633C4.58021 258.78 3.78706 253.872 3.22951 248.941C2.62483 243.608 1.52541 237.467 3.27662 232.292C2.88397 232.426 2.48348 232.559 2.09083 232.693C17.1371 239.156 30.8012 248.571 42.0702 260.461C54.2108 273.269 62.9511 288.684 70.1915 304.665C70.3879 305.128 71.6836 304.72 71.503 304.319Z" fill="#272525"/>
<path d="M20.6743 269.703C26.0535 264.63 34.4326 263.767 39.8669 269.248C41.783 271.188 43.2044 273.771 43.5813 276.496C44.0839 280.093 42.2385 282.944 40.0475 285.574C37.1969 288.998 33.5217 291.731 28.7785 290.844C25.708 290.263 23.093 288.393 21.3182 285.849C18.3262 281.569 16.2609 272.955 21.2161 269.311C21.813 268.871 20.5015 268.848 20.156 269.091C13.9365 273.661 17.5095 284.875 22.4883 288.99C28.1032 293.631 35.3985 291.982 40.0475 287.004C42.851 284.004 45.5367 280.462 44.9006 276.135C44.3744 272.593 42.2463 269.35 39.38 267.253C33.2468 262.777 24.8756 264.521 19.622 269.476C19.0566 270.01 20.3602 270.002 20.6743 269.703Z" fill="#272525"/>
<path d="M24.9776 271.989C28.6606 267.937 35.5084 269.107 39.003 272.986C42.5289 276.913 39.215 281.067 35.7283 283.501C33.3567 285.158 30.0271 286.297 27.2628 285.033C25.92 284.42 24.6007 283.438 23.6191 282.355C20.5878 278.994 23.0851 275.271 25.1425 272.138C25.4723 271.635 24.153 271.745 23.9096 272.107C22.5589 274.156 20.5014 277.023 20.7606 279.622C21.004 282.08 23.1557 283.792 25.0954 285.017C29.9328 288.064 33.9535 286.124 38.1156 282.74C42.5603 279.111 43.2121 274.007 38.0135 270.74C33.5295 267.921 27.6712 267.63 23.9096 271.769C23.3992 272.342 24.6792 272.319 24.9776 271.989Z" fill="#272525"/>
<path d="M18.7732 240.766C17.5874 243.655 16.0953 246.373 13.9593 248.674C12.8207 249.899 11.5642 250.974 10.1114 251.83C8.21098 252.945 5.91792 252.922 4.08818 253.927C4.86562 253.495 3.70339 253.299 3.27148 253.534C3.05945 253.652 2.85527 253.77 2.64324 253.88C2.2663 254.092 2.36839 254.453 2.79245 254.453C11.2579 254.445 17.0927 247.943 20.1003 240.593C20.2652 240.184 18.9538 240.334 18.7732 240.766Z" fill="#272525"/>
<path d="M54.9176 273.607C62.4486 270.348 70.9455 272.61 76.9766 277.855C82.3872 282.575 85.7876 289.046 88.5989 295.54C88.9523 295.36 89.3057 295.187 89.6669 295.006C84.8059 293.546 79.9371 291.771 74.9819 290.671C71.6837 289.941 68.5975 289.972 65.5662 291.559C64.7809 291.967 65.951 292.179 66.3829 291.951C70.4979 289.8 75.1233 291.59 79.1833 292.815C82.403 293.781 85.6305 294.755 88.8502 295.721C89.078 295.791 90.0831 295.579 89.9182 295.187C86.5964 287.514 82.348 279.638 75.1076 275.013C68.8959 271.047 61.2 270.12 54.3994 273.065C53.5512 273.426 54.3208 273.866 54.9176 273.607Z" fill="#272525"/>
<path d="M16.0493 296.78C9.76694 298.971 5.20437 304.178 2.82493 310.295C-0.434044 318.69 1.05017 327.909 3.46103 336.312C3.58667 336.76 4.72534 336.438 4.78031 336.053C5.43996 331.616 7.25399 327.58 9.89257 323.959C12.9238 319.805 18.5622 313.107 24.2792 313.798C24.6954 313.845 25.8262 313.169 25.088 313.083C19.6931 312.431 15.3111 316.413 11.8637 320.088C7.61523 324.611 4.37982 330.014 3.46103 336.218C3.90079 336.131 4.34055 336.045 4.78031 335.959C2.62075 328.436 1.19938 320.378 3.31182 312.667C5.16511 305.89 9.78263 299.686 16.5676 297.322C17.4393 297.016 16.6461 296.568 16.0493 296.78Z" fill="#272525"/>
<path d="M65.9305 313.217C65.9148 313.17 68.4356 314.607 68.8047 314.889C69.6921 315.581 70.5324 316.311 71.3334 317.096C72.7076 318.447 73.9641 319.923 75.0635 321.509C75.9745 322.821 77.812 324.706 76.7048 326.386C76.2336 327.101 74.2076 327.729 73.4929 328.114C71.1763 329.362 68.8597 330.603 66.5352 331.852C64.2186 333.1 61.902 334.341 59.5775 335.59C58.5095 336.163 57.4415 336.736 56.3656 337.317C54.8108 338.15 53.7977 339.131 52.6512 337.2C51.6696 335.551 48.976 322.601 51.1042 321.847C51.9759 321.541 51.1827 321.093 50.5859 321.305C48.4106 322.075 49.243 325.711 49.3765 327.493C49.5336 329.653 49.8556 331.797 50.3346 333.909C50.6252 335.189 50.9785 338.189 51.8816 339.139C52.9339 340.247 53.7585 339.556 55.0542 338.864C59.3419 336.571 63.6139 334.263 67.8938 331.97C70.0298 330.823 72.1736 329.669 74.3096 328.522C75.4169 327.925 77.3566 327.352 78.1654 326.363C79.5475 324.666 76.6969 321.541 75.7232 320.229C73.6186 317.395 70.9878 314.827 67.9959 312.942C66.6452 312.094 65.5615 311.568 64.4542 312.895C64.4071 312.95 64.3992 313.013 64.4071 313.083C64.4699 313.256 64.5406 313.429 64.6034 313.602C64.784 314.033 66.0876 313.641 65.9305 313.217Z" fill="#272525"/>
<path d="M74.0545 329.692C79.3396 329.802 83.91 337.223 86.5093 341.15C86.847 340.946 87.1846 340.742 87.5302 340.529C85.1978 340.255 82.7477 339.721 80.3997 339.674C79.8186 339.666 79.1432 339.54 78.6014 339.831C76.4261 340.977 78.6564 344.676 79.104 346.364C81.5384 355.552 82.4493 365.054 81.9782 374.541C82.3708 374.407 82.7713 374.274 83.1639 374.14C73.6462 369.122 67.2539 359.659 65.8011 349.042C65.7383 348.602 64.419 348.901 64.4818 349.395C64.6703 350.95 64.2541 352.128 63.0526 353.141C63.4452 353.118 63.8457 353.094 64.2383 353.071C63.8064 351.869 59.3303 336.47 60.5867 336.43C61.0815 336.415 61.9846 335.653 61.0972 335.684C59.0004 335.747 58.9533 337.451 59.2282 339.273C59.9585 344.103 61.2621 348.838 62.9191 353.424C63.0761 353.848 63.885 353.542 64.1049 353.353C65.4791 352.191 66.0053 350.817 65.7932 349.042C65.3535 349.16 64.9137 349.278 64.4739 349.395C65.9503 360.154 72.4761 369.703 82.1116 374.784C82.3786 374.925 83.2739 374.784 83.2974 374.384C83.6194 367.889 83.3289 361.387 82.308 354.955C81.7975 351.759 81.1222 348.594 80.2741 345.469C79.795 343.702 78.2087 341.221 80.7845 340.537C82.2687 340.145 85.1586 341.064 86.7292 341.244C86.9883 341.276 88.0563 341.095 87.7501 340.624C84.868 336.273 80.4704 329.064 74.5807 328.939C74.0702 328.931 73.1671 329.677 74.0545 329.692Z" fill="#272525"/>
<path d="M72.0503 334.38C72.7335 333.705 75.4349 336.595 75.7334 337.16C77.2176 338.393 76.3459 339.021 73.0948 339.053C72.7964 339.013 72.4901 339.014 72.1917 339.037C71.5478 339.414 71.3436 339.084 70.9666 340.019C70.6761 340.757 71.3279 342.359 71.4692 343.089C71.7755 344.613 72.0818 346.128 72.388 347.652C72.8121 349.78 74.9245 355.041 73.3304 356.934C73.7544 356.879 74.1785 356.824 74.6025 356.769C72.3644 351.869 70.1264 346.976 67.8961 342.076C67.7155 341.676 66.781 341.911 66.624 342.241C65.9015 343.757 65.179 345.272 64.4565 346.788C64.8806 346.733 65.3047 346.678 65.7287 346.623C64.0246 342.43 64.0482 338.079 65.8465 333.925C66.0193 333.516 64.7157 333.658 64.5272 334.09C62.7053 338.315 62.6818 342.712 64.4094 346.976C64.5743 347.385 65.5324 347.133 65.6816 346.811C66.4041 345.296 67.1265 343.78 67.849 342.265C67.425 342.32 67.0009 342.375 66.5768 342.43C68.8149 347.33 71.053 352.222 73.2832 357.122C73.4874 357.578 74.3355 357.224 74.5554 356.957C75.5684 355.756 75.1208 354.429 74.846 352.992C74.3041 350.133 73.6995 347.291 73.1262 344.44C72.9927 343.772 72.0032 340.961 72.3252 340.451C72.9299 339.508 73.401 340.097 74.2256 339.893C75.6391 339.54 76.7385 339.335 77.995 338.519C78.1364 338.432 78.3484 338.236 78.1992 338.063C76.7464 336.398 73.5895 331.592 70.9823 334.16C70.4483 334.702 71.7441 334.687 72.0503 334.38Z" fill="#272525"/>
<path d="M18.6955 241.88C14.0622 254.288 10.7247 267.104 8.69866 280.187C8.62013 280.698 9.94728 280.47 10.018 280.022C12.0519 266.939 15.3815 254.123 20.0147 241.716C20.1797 241.284 18.8604 241.441 18.6955 241.88Z" fill="#272525"/>
<path d="M13.9667 249.051C10.7863 257.39 8.57174 266.013 7.30741 274.848C7.23674 275.366 8.56388 275.13 8.6267 274.683C9.88317 265.848 12.1056 257.226 15.286 248.886C15.4509 248.454 14.1316 248.611 13.9667 249.051Z" fill="#272525"/>
<path d="M10.6939 252.019C8.77777 257.704 7.21503 263.476 5.98997 269.342C5.88788 269.837 7.21504 269.625 7.30927 269.177C8.53433 263.303 10.0971 257.531 12.0132 251.854C12.1702 251.406 10.8509 251.571 10.6939 252.019Z" fill="#272525"/>
<path d="M7.85706 254.053C6.4985 258.018 5.44621 262.055 4.68448 266.17C4.59024 266.672 5.91738 266.453 6.00376 266.005C6.7655 261.882 7.82565 257.854 9.17636 253.888C9.33342 253.44 8.00626 253.613 7.85706 254.053Z" fill="#272525"/>
<path d="M6.72631 254.28C6.65563 254.108 6.58496 253.927 6.51429 253.754C6.33367 253.307 5.29707 253.628 5.19499 254.013C4.62172 256.134 4.1427 258.27 3.76576 260.429C3.67938 260.932 5.00652 260.712 5.08505 260.264C5.46199 258.105 5.94102 255.969 6.51429 253.848C6.07452 253.935 5.63475 254.021 5.19499 254.108C5.26566 254.28 5.33634 254.461 5.40702 254.634C5.59549 255.089 6.89907 254.697 6.72631 254.28Z" fill="#272525"/>
<path d="M21.123 243.043C16.3562 256.55 12.5475 270.363 9.71263 284.404C9.61054 284.899 10.9377 284.687 11.0319 284.24C13.8668 270.198 17.6677 256.385 22.4423 242.878C22.5993 242.438 21.28 242.603 21.123 243.043Z" fill="#272525"/>
<path d="M23.2186 244.346C18.2948 258.662 14.5176 273.324 11.8869 288.236C11.8005 288.739 13.1276 288.519 13.2061 288.071C15.8369 273.159 19.6141 258.497 24.5379 244.181C24.6871 243.734 23.3678 243.906 23.2186 244.346Z" fill="#272525"/>
<path d="M25.9228 246.263C23.6926 254.045 21.4623 261.835 19.2321 269.617C19.0986 270.081 20.4257 269.9 20.5514 269.452C22.7816 261.67 25.0119 253.88 27.2421 246.098C27.3756 245.627 26.0484 245.815 25.9228 246.263Z" fill="#272525"/>
<path d="M16.6295 277.117C15.4908 282.269 14.36 287.42 13.2213 292.572C13.1114 293.059 14.4385 292.854 14.5406 292.407C15.6793 287.255 16.8101 282.104 17.9488 276.952C18.0587 276.465 16.7316 276.669 16.6295 277.117Z" fill="#272525"/>
<path d="M29.2647 248.265C29.2961 248.257 29.3275 248.249 29.351 248.241C29.5238 248.194 30.0107 247.998 29.9243 247.731C29.9086 247.684 29.8929 247.645 29.8772 247.598C29.7201 247.119 28.8013 247.527 28.605 247.762C27.9375 248.54 27.8668 249.938 27.6155 250.911C27.1444 252.765 26.6732 254.618 26.1942 256.464C25.2911 259.982 24.3958 263.5 23.4928 267.018C23.3671 267.497 24.6942 267.301 24.812 266.853C25.6209 263.704 26.4219 260.563 27.2307 257.414C27.6077 255.93 27.9846 254.453 28.3694 252.969C28.715 251.603 28.927 248.854 29.8379 247.794C29.4139 247.849 28.9898 247.904 28.5657 247.959C28.5815 248.006 28.5972 248.045 28.6129 248.092C28.8013 247.92 28.9977 247.755 29.1861 247.582C29.1547 247.59 29.1233 247.598 29.0998 247.605C28.2988 247.825 28.4715 248.493 29.2647 248.265Z" fill="#272525"/>
<path d="M18.7347 284.106C18.185 288.292 16.1824 292.077 15.5385 296.239C15.46 296.749 16.7871 296.521 16.8578 296.074C17.5096 291.912 19.5042 288.127 20.0539 283.941C20.1246 283.423 18.7975 283.658 18.7347 284.106Z" fill="#272525"/>
<path d="M32.273 250.723C32.2888 250.7 32.3123 250.684 32.328 250.66C32.3987 250.582 32.3908 250.464 32.328 250.386C32.3045 250.354 32.2809 250.331 32.2495 250.299C31.9746 249.985 31.2286 250.268 31.0244 250.543C29.8858 252.058 29.7208 255.239 29.2732 257.084C28.9513 258.411 28.6293 259.738 28.3152 261.066C28.0246 262.291 27.899 264.835 27.0666 265.793C27.4906 265.738 27.9147 265.683 28.3387 265.628C28.3309 265.589 28.323 265.55 28.3152 265.503C28.0639 265.683 27.8126 265.864 27.5613 266.044C27.5848 266.044 27.6163 266.044 27.6398 266.036C28.2916 265.997 28.7392 265.251 27.8204 265.306C27.7969 265.306 27.7655 265.306 27.7419 265.314C27.5142 265.33 26.9331 265.526 26.988 265.856C26.9959 265.895 27.0037 265.934 27.0116 265.982C27.098 266.484 28.1189 266.013 28.2838 265.817C29.4853 264.419 29.5952 260.987 30.0271 259.189C30.3412 257.862 30.6632 256.534 30.993 255.215C31.3071 253.951 31.4563 251.611 32.2416 250.566C31.8333 250.645 31.4249 250.731 31.0166 250.81C31.0244 250.77 31.0244 250.731 31.0323 250.692C30.6711 251.116 31.9903 251.037 32.273 250.723Z" fill="#272525"/>
<path d="M21.2768 286.713C20.4208 292.241 18.7717 297.684 17.7587 303.196C17.6644 303.699 18.9994 303.479 19.078 303.031C20.091 297.519 21.7401 292.069 22.5961 286.548C22.6825 286.03 21.3475 286.257 21.2768 286.713Z" fill="#272525"/>
<path d="M35.1655 251.956C35.1027 251.54 35.142 251.619 34.82 251.344C34.498 251.077 33.6735 251.273 33.5478 251.681C32.7704 254.218 32.0322 256.754 31.3333 259.314C30.9249 260.799 29.48 263.83 29.9355 265.298C29.9826 265.455 30.2024 265.503 30.3359 265.495C30.3752 265.495 30.4145 265.487 30.4537 265.487C30.9406 265.463 31.8516 264.694 30.9642 264.741C31.5689 264.709 32.7861 258.639 32.9274 258.129C33.5399 255.914 34.1917 253.715 34.8671 251.516C34.443 251.626 34.019 251.744 33.5949 251.854C33.6813 252.003 33.7598 252.153 33.8462 252.302C33.909 252.757 35.2362 252.451 35.1655 251.956Z" fill="#272525"/>
<path d="M36.5368 254.547C35.1389 256.275 35.0526 258.906 34.6128 261.01C34.3772 262.165 33.0579 265.298 33.7804 266.28C34.0317 266.625 34.8091 266.288 35.0054 266.036C35.029 266.005 35.0604 265.973 35.084 265.934C35.1939 265.793 35.1154 265.683 34.9976 265.604C34.974 265.589 34.9505 265.573 34.9269 265.557C34.5735 265.314 33.3563 265.84 33.8746 266.193C33.8432 266.131 33.8118 266.068 33.7804 266.005C34.1887 265.926 34.5971 265.84 35.0054 265.761C34.55 265.141 35.8457 261.285 36.0263 260.414C36.419 258.513 36.5211 256.11 37.7697 254.579C38.1309 254.123 36.8116 254.21 36.5368 254.547Z" fill="#272525"/>
<path d="M38.8375 256.943C37.8873 257.987 37.5025 259.526 37.047 260.83C36.4031 262.675 35.8848 264.56 35.4607 266.468C35.3743 266.837 36.0497 266.751 36.2068 266.712C36.2696 266.696 36.3324 266.688 36.3874 266.672C36.5758 266.633 36.9135 266.484 36.9606 266.256C36.9763 266.193 36.9842 266.131 36.9999 266.068C37.0941 265.565 35.767 265.785 35.6806 266.233C35.6649 266.296 35.657 266.358 35.6413 266.421C35.8298 266.28 36.0261 266.146 36.2146 266.005C36.1518 266.021 36.089 266.029 36.034 266.044C36.2853 266.123 36.5366 266.209 36.78 266.288C37.102 264.827 37.4789 263.382 37.9344 261.953C38.3899 260.524 38.8925 258.254 39.8976 257.139C40.4159 256.589 39.1359 256.613 38.8375 256.943Z" fill="#272525"/>
<path d="M41.6234 259.581C40.9088 261.081 40.2963 262.612 39.8408 264.214C39.5345 265.298 38.6864 267.206 39.4089 268.204C39.6681 268.565 40.9481 268.117 40.634 267.685C40.0607 266.9 40.9795 264.646 41.2386 263.775C41.6627 262.345 42.2124 260.955 42.8563 259.613C43.1312 259.039 41.8119 259.189 41.6234 259.581Z" fill="#272525"/>
<path d="M45.2364 262.636C45.205 262.424 45.1736 262.204 45.1422 261.992C45.0715 261.513 43.9171 261.913 43.8229 262.251C43.2967 264.128 42.7784 266.005 42.2523 267.882C41.8753 269.232 41.0429 270.952 41.1136 272.35C41.1215 272.452 41.2942 272.523 41.3728 272.531C41.412 272.539 41.4513 272.539 41.4905 272.546C41.8596 272.593 42.3936 272.491 42.5585 272.107C42.5743 272.075 42.5821 272.044 42.5978 272.02C42.7706 271.604 41.4591 271.753 41.2785 272.185C41.2628 272.217 41.255 272.248 41.2393 272.272C41.5926 272.122 41.946 271.981 42.3072 271.832C42.7392 271.887 44.9066 262.974 45.1579 262.086C44.7181 262.173 44.2783 262.259 43.8386 262.345C43.87 262.557 43.9014 262.777 43.9328 262.989C43.9878 263.437 45.3149 263.131 45.2364 262.636Z" fill="#272525"/>
<path d="M46.8628 265.612C45.2844 268.714 44.1614 271.965 43.486 275.381C43.3839 275.876 44.719 275.664 44.8053 275.216C45.465 271.871 46.5487 268.682 48.0957 265.643C48.3706 265.078 47.0591 265.227 46.8628 265.612Z" fill="#272525"/>
<path d="M48.3881 269.091C41.1869 285.378 34.2685 301.783 27.6327 318.314C27.46 318.738 28.7793 318.581 28.952 318.149C35.5878 301.626 42.5062 285.214 49.7074 268.927C49.888 268.518 48.5844 268.66 48.3881 269.091Z" fill="#272525"/>
<path d="M36.6938 289.289C35.4687 293.522 33.0265 297.424 31.2282 301.445C29.2492 305.866 27.4666 310.366 25.8489 314.937C25.6918 315.376 27.0111 315.211 27.1682 314.772C28.7859 310.209 30.5685 305.701 32.5475 301.28C34.3379 297.275 36.788 293.357 38.0131 289.124C38.1466 288.661 36.8273 288.841 36.6938 289.289Z" fill="#272525"/>
<path d="M32.4532 291.354C33.0186 292.021 31.0397 295.571 30.7648 296.246C30.0188 298.092 29.2806 299.929 28.5346 301.775C27.0504 305.458 25.5662 309.149 24.082 312.832C23.9092 313.248 25.2285 313.099 25.4013 312.667C27.1053 308.426 28.8173 304.194 30.5214 299.953C31.3381 297.927 32.1548 295.901 32.9715 293.875C33.3249 292.995 34.3929 291.692 33.6704 290.844C33.3877 290.49 32.1234 290.961 32.4532 291.354Z" fill="#272525"/>
<path d="M29.0084 291.684C26.3934 297.299 23.9825 303 21.7916 308.796C21.6267 309.228 22.946 309.071 23.1109 308.631C25.3018 302.835 27.7048 297.134 30.3277 291.519C30.5083 291.127 29.2048 291.26 29.0084 291.684Z" fill="#272525"/>
<path d="M26.3422 291.197C26.5935 292.312 25.3606 294.056 24.9365 295.053C24.4261 296.27 23.9235 297.487 23.4445 298.712C22.4157 301.343 21.4655 304.013 20.5781 306.699C20.4289 307.147 21.7482 306.982 21.8974 306.534C22.9026 303.487 23.9863 300.472 25.18 297.495C25.8553 295.807 28.0699 292.634 27.6615 290.836C27.5594 290.388 26.2323 290.726 26.3422 291.197Z" fill="#272525"/>
<path d="M23.9953 290.404C22.354 295.053 20.7206 299.71 19.0794 304.359C18.9223 304.799 20.2416 304.634 20.3987 304.194C22.0399 299.545 23.6733 294.888 25.3146 290.239C25.4717 289.8 24.1524 289.965 23.9953 290.404Z" fill="#272525"/>
<path d="M50.748 270.52C41.9527 286.32 38.5995 304.547 29.0425 319.97C28.7205 320.489 30.0398 320.371 30.2754 320.002C39.8325 304.579 43.1857 286.352 51.981 270.552C52.2794 270.002 50.9601 270.136 50.748 270.52Z" fill="#272525"/>
<path d="M52.054 272.688C45.756 290.074 39.8977 307.633 31.0867 323.952C30.7883 324.502 32.1076 324.36 32.3196 323.983C41.1542 307.602 47.0517 289.972 53.3733 272.523C53.5304 272.083 52.2111 272.24 52.054 272.688Z" fill="#272525"/>
<path d="M54.0668 274.612C50.1403 283.549 47.2347 292.87 44.0857 302.097C42.5701 306.527 40.9995 310.948 39.209 315.275C38.1253 317.89 36.9631 320.481 35.6831 323.01C35.1412 324.078 33.7669 325.656 34.0654 326.897C34.1046 327.062 34.3324 327.086 34.4659 327.093C35.0234 327.125 35.3846 326.991 35.7145 326.544C35.7773 326.457 35.7773 326.355 35.7145 326.269C35.6752 326.222 35.6438 326.182 35.6045 326.135C35.3218 325.782 34.0497 326.245 34.3795 326.654C34.7643 327.133 38.0625 320.701 38.3688 320.041C39.2797 318.086 40.1278 316.115 40.9367 314.12C42.7036 309.778 44.2506 305.356 45.7584 300.92C48.7739 292.022 51.6088 283.07 55.3939 274.463C55.5667 274.039 54.2553 274.18 54.0668 274.612Z" fill="#272525"/>
<path d="M55.5715 277.635C52.1398 285.543 48.9279 293.341 46.4621 301.602C43.8628 310.327 40.5881 318.761 36.4653 326.889C36.1826 327.447 37.5019 327.305 37.6982 326.92C41.6797 319.067 44.9308 310.908 47.4751 302.482C50.0745 293.867 53.3177 285.724 56.8987 277.47C57.0636 277.062 55.76 277.203 55.5715 277.635Z" fill="#272525"/>
<path d="M57.8582 280.745C57.9132 280.737 57.9603 280.729 58.0153 280.714C58.2587 280.666 58.8084 280.525 58.7692 280.172C58.7613 280.101 58.7534 280.03 58.7456 279.952C58.722 279.732 58.3137 279.755 58.1723 279.763C56.2955 279.897 55.5966 282.795 55.1097 284.2C53.5077 288.849 51.9921 293.522 50.3586 298.155C47.0683 307.492 43.5659 316.751 39.8671 325.931C39.6944 326.355 41.0136 326.198 41.1864 325.766C44.2176 318.235 47.1232 310.657 49.8796 303.024C51.2225 299.301 52.5418 295.563 53.8218 291.81C54.4657 289.933 55.094 288.056 55.7144 286.171C56.2248 284.624 57.6069 281.891 57.442 280.509C57.6933 280.329 57.9446 280.148 58.1959 279.968C58.1409 279.975 58.0938 279.983 58.0388 279.999C57.4106 280.125 56.9473 280.902 57.8582 280.745Z" fill="#272525"/>
<path d="M60.1652 282.166C60.1574 282.064 60.1417 281.962 60.1338 281.868C60.1103 281.797 60.0631 281.75 60.0003 281.726C58.9873 281.389 58.6025 281.797 58.0606 282.598C56.8984 284.302 56.4115 287.294 55.7519 289.242C54.9351 291.652 54.142 294.063 53.3646 296.482C50.4433 305.615 47.8125 314.842 45.4488 324.14C45.331 324.619 46.6581 324.423 46.7681 323.975C48.6057 316.766 50.5925 309.596 52.7599 302.482C53.7886 299.113 54.8488 295.76 55.956 292.414C56.5686 290.561 57.1968 288.708 57.8329 286.854C58.2884 285.527 58.6182 282.951 59.6783 282.04C59.3249 282.111 58.9716 282.182 58.626 282.252C58.7046 282.339 58.7752 282.433 58.8538 282.519C58.8852 282.951 60.2123 282.669 60.1652 282.166Z" fill="#272525"/>
<path d="M59.3642 284.075C56.2937 296.734 52.8698 309.306 49.0926 321.777C48.9512 322.24 50.2783 322.06 50.4118 321.612C54.1891 309.142 57.613 296.569 60.6835 283.91C60.8013 283.423 59.4741 283.619 59.3642 284.075Z" fill="#272525"/>
<path d="M61.0776 286.917C57.9286 298.343 54.7717 309.777 51.6227 321.203C51.4892 321.674 52.8163 321.486 52.942 321.038C56.091 309.612 59.2479 298.178 62.3969 286.752C62.5304 286.281 61.2033 286.469 61.0776 286.917Z" fill="#272525"/>
<path d="M62.8671 290.302C60.4798 299.749 57.8805 309.134 55.0691 318.463C54.9278 318.926 56.2549 318.745 56.3884 318.298C59.1998 308.969 61.7991 299.584 64.1864 290.137C64.3042 289.658 62.977 289.855 62.8671 290.302Z" fill="#272525"/>
<path d="M64.9487 293.349C63.9356 297.535 62.8362 301.689 61.619 305.819C61.0693 307.696 60.496 309.565 59.9071 311.426C59.4045 313.005 58.415 314.827 58.4543 316.492C58.4543 316.649 58.7527 316.688 58.8548 316.688C58.9333 316.688 59.004 316.688 59.0825 316.688C59.3495 316.688 59.9306 316.562 60.0013 316.232C60.017 316.17 60.0249 316.107 60.0406 316.052C60.1427 315.557 58.8155 315.769 58.7213 316.217C58.7056 316.28 58.6977 316.342 58.682 316.397C58.9883 316.248 59.2945 316.091 59.6008 315.942C60.4175 315.95 62.9383 305.678 63.2681 304.532C64.3518 300.77 65.3413 296.985 66.2679 293.184C66.3857 292.705 65.0586 292.901 64.9487 293.349Z" fill="#272525"/>
<path d="M66.3252 296.616C65.2807 302.387 63.8829 308.057 62.1239 313.649C61.9825 314.104 63.3018 313.931 63.4431 313.484C65.2022 307.892 66.6 302.223 67.6445 296.451C67.7387 295.948 66.4116 296.168 66.3252 296.616Z" fill="#272525"/>
<path d="M69.1337 300.267C69.118 300.095 69.0944 299.93 69.0787 299.757C69.0237 299.301 67.8301 299.655 67.7594 300.016C67.2019 302.874 66.4873 305.694 65.5606 308.45C65.1365 309.706 63.2126 312.659 64.1628 313.806C64.4533 314.151 65.7177 313.688 65.3878 313.287C64.7282 312.494 67.0212 307.916 67.3589 306.817C68.0657 304.524 68.6232 302.199 69.0866 299.843C68.6468 299.93 68.207 300.016 67.7673 300.102C67.783 300.275 67.8066 300.44 67.8223 300.613C67.8615 301.06 69.1887 300.77 69.1337 300.267Z" fill="#272525"/>
<path d="M68.8751 303.181C67.8621 305.372 67.0768 307.626 66.5035 309.974C66.3857 310.453 67.7129 310.256 67.8228 309.809C68.3961 307.461 69.1813 305.207 70.1944 303.016C70.375 302.623 69.0714 302.757 68.8751 303.181Z" fill="#272525"/>
<path d="M71.4439 335.236C73.2972 335.189 74.2631 336.297 74.6793 337.804C75.1034 337.663 75.5274 337.514 75.9515 337.372C75.2212 336.854 74.7029 336.163 74.3966 335.299C74.004 335.464 73.6035 335.629 73.2108 335.794C73.4778 335.998 73.7527 336.21 74.0197 336.414C74.428 336.242 74.8364 336.069 75.2447 335.896C74.5851 335.142 74.004 334.687 73.1402 334.216C72.8653 334.066 71.9936 334.216 71.9543 334.616C71.7816 336.265 71.8444 337.687 72.1585 339.312C72.5983 339.194 73.0381 339.076 73.4778 338.959C72.9203 337.043 72.3627 335.134 71.8051 333.218C71.6716 332.755 70.4309 333.1 70.4859 333.572C70.7057 335.535 70.9178 337.498 71.1377 339.461C71.5774 339.343 72.0172 339.226 72.4569 339.108C71.5303 337.435 70.9649 335.77 70.6822 333.87C70.6115 333.407 69.3472 333.752 69.3629 334.223C69.4179 336.21 69.465 338.189 69.5199 340.176C69.9597 340.058 70.3995 339.94 70.8392 339.823C70.2503 337.663 69.6691 335.496 69.0802 333.336C68.9545 332.857 67.7452 333.226 67.7609 333.689C67.8394 336.194 67.9179 338.692 67.9886 341.197C68.4284 341.079 68.8681 340.961 69.3079 340.843C68.7504 338.181 68.3184 335.519 68.0279 332.818C67.9808 332.362 66.7007 332.692 66.7086 333.171C66.7243 335.888 66.7479 338.613 66.7636 341.33C67.2033 341.212 67.6431 341.095 68.0829 340.977C67.3525 338.888 66.9363 336.768 66.5672 334.592C66.4887 334.153 65.2794 334.467 65.248 334.852C65.0673 337.137 64.8946 339.43 64.7139 341.715C65.138 341.605 65.562 341.487 65.9861 341.377C65.5149 340.718 65.2636 339.995 65.2322 339.202C64.7925 339.32 64.3527 339.438 63.9129 339.556C64.1328 340.608 64.3448 341.668 64.5647 342.72C64.6668 343.207 65.782 342.791 65.884 342.461C66.5437 340.317 67.1955 338.181 67.8551 336.037C68.1143 335.197 68.2792 333.25 69.4179 333.132C70.2424 333.045 71.8444 334.922 72.3234 335.448C72.6611 335.244 72.9988 335.04 73.3443 334.828C71.7659 334.325 70.1717 331.797 73.0459 334.121C72.9595 334.058 74.4673 335.582 74.3338 335.598C73.9568 335.637 72.5512 333.674 72.8339 333.517C73.5721 333.1 74.9463 336.336 75.0405 336.697C75.4332 336.532 75.8337 336.367 76.2264 336.202C75.017 335.676 72.881 334.129 71.4361 334.914C70.1482 335.613 70.3602 337.851 70.8235 338.959C70.8942 339.124 71.067 339.147 71.224 339.155C72.8339 339.257 74.3731 338.472 75.7709 337.741C75.4175 337.702 75.0563 337.663 74.7029 337.632C74.2788 338.864 73.4621 339.775 72.2528 340.357C72.5276 340.49 72.8025 340.616 73.0695 340.749C74.3888 339.932 75.2133 338.967 75.8337 337.529C76.03 337.058 74.8914 337.341 74.7657 337.42C72.3549 338.81 70.3681 340.561 68.6718 342.767C69.0959 342.744 69.5199 342.72 69.944 342.697C70.0854 341.283 70.3838 340.042 70.9021 338.723C70.4623 338.778 70.0225 338.833 69.5828 338.888C69.465 340.309 69.2451 341.197 68.5226 342.516C68.9467 342.461 69.3707 342.406 69.7948 342.351C69.5278 341.762 69.2529 341.173 68.9859 340.592C68.7896 340.16 67.5174 340.498 67.6666 340.945C68.7346 344.244 70.0775 347.385 71.7266 350.44C71.9544 350.864 73.2265 350.503 73.0459 350.086C71.7423 347.079 70.8549 344 70.3681 340.757C69.9283 340.875 69.4885 340.993 69.0488 341.11C70.3131 344.173 71.3654 347.291 72.2135 350.487C72.3313 350.942 73.627 350.605 73.5328 350.133C73.0066 347.526 72.4805 344.927 71.9543 342.32C71.5146 342.438 71.0748 342.555 70.6351 342.673C71.5381 346.733 72.4412 350.785 73.3443 354.845C73.7841 354.727 74.2239 354.61 74.6636 354.492C72.1507 349.725 69.9519 344.833 68.0593 339.791C67.8944 339.343 66.6693 339.665 66.74 340.144C66.8971 341.181 67.0541 342.226 67.2112 343.262C67.6352 343.121 68.0593 342.972 68.4834 342.83C67.6824 341.951 67.9022 340.702 66.473 340.969C66.2217 341.016 65.7976 341.126 65.7191 341.417C65.4443 342.516 65.6406 343.686 65.6877 344.817C65.7034 345.233 67.0306 344.974 67.007 344.464C66.9128 342.241 66.8107 340.011 66.7164 337.789C66.7007 337.365 65.4285 337.647 65.3971 338.048C65.2244 340.404 65.0595 342.76 64.8867 345.108C65.3265 345.021 65.7662 344.935 66.206 344.848C65.9704 342.39 65.7348 339.94 65.4914 337.482C65.0516 337.6 64.6118 337.718 64.1721 337.836C64.3841 339.328 64.5961 340.82 64.8082 342.312C64.871 342.744 66.1196 342.445 66.1275 342.053C66.1432 340.561 66.1824 335.645 67.6823 334.789C70.2267 333.328 72.9203 336.399 74.483 338.063C74.8599 337.867 75.2447 337.679 75.6217 337.482C74.1296 336.595 72.826 335.582 71.601 334.365C71.224 334.561 70.8392 334.75 70.4623 334.946C72.0407 335.778 73.6192 336.619 75.2055 337.451C75.5589 337.239 75.9044 337.027 76.2578 336.815C74.2239 335.88 72.2842 334.82 70.3838 333.619C70.0304 333.831 69.6849 334.043 69.3315 334.255C70.0618 334.53 70.6979 334.954 71.2476 335.519C72.6454 336.776 71.6716 337.404 68.3263 337.412C67.9415 337.223 66.7321 337.781 67.274 338.048C68.8839 338.849 71.334 339.179 72.7868 337.765C74.5301 336.077 71.868 334.31 70.3838 333.611C70.0304 333.446 68.7818 333.894 69.3315 334.247C71.224 335.448 73.1637 336.509 75.2055 337.443C75.5746 337.616 76.8153 337.098 76.2578 336.807C74.6793 335.975 73.1009 335.134 71.5146 334.302C71.2397 334.153 69.9911 334.498 70.3759 334.883C71.6717 336.163 73.0067 337.192 74.5694 338.118C74.8521 338.283 76.0693 337.93 75.7081 337.537C74.1061 335.833 71.0041 332.417 68.2478 333.265C65.1066 334.231 64.8396 339.697 64.8082 342.21C65.2479 342.123 65.6877 342.037 66.1275 341.951C65.9154 340.459 65.7034 338.967 65.4914 337.475C65.4286 337.027 64.125 337.341 64.1721 337.828C64.4077 340.286 64.6433 342.736 64.8867 345.194C64.926 345.626 66.1824 345.327 66.206 344.935C66.3788 342.579 66.5437 340.223 66.7164 337.875C66.2767 337.961 65.8369 338.048 65.3971 338.134C65.4914 340.357 65.5935 342.587 65.6877 344.809C66.1275 344.691 66.5672 344.574 67.007 344.456C66.9599 343.451 66.795 342.226 67.0384 341.244C66.7871 341.393 66.5358 341.542 66.2845 341.692C66.3473 341.684 67.0463 343.129 67.2426 343.341C67.5096 343.639 68.5854 343.372 68.5148 342.909C68.3577 341.872 68.2007 340.828 68.0436 339.791C67.6038 339.909 67.1641 340.027 66.7243 340.144C68.6168 345.186 70.8157 350.086 73.3286 354.845C73.5485 355.254 74.7578 354.979 74.6479 354.492C73.7448 350.432 72.8417 346.38 71.9387 342.32C71.8366 341.864 70.5251 342.194 70.6194 342.673C71.1455 345.28 71.6716 347.88 72.1978 350.487C72.6376 350.369 73.0773 350.251 73.5171 350.133C72.669 346.937 71.6167 343.82 70.3524 340.757C70.1717 340.317 68.9624 340.631 69.0331 341.11C69.5278 344.354 70.4073 347.432 71.7109 350.44C72.1507 350.322 72.5904 350.204 73.0302 350.086C71.3889 347.039 70.0382 343.89 68.9702 340.592C68.5305 340.71 68.0907 340.828 67.651 340.945C67.918 341.534 68.1928 342.123 68.4598 342.705C68.6483 343.113 69.5592 342.862 69.732 342.54C70.4152 341.291 70.7686 340.152 70.8864 338.723C70.9335 338.142 69.7084 338.527 69.5671 338.888C69.0409 340.207 68.7504 341.448 68.609 342.862C68.554 343.451 69.7084 343.027 69.8812 342.791C71.4753 340.71 73.2894 339.116 75.5667 337.812C75.2133 337.773 74.8521 337.734 74.4987 337.702C74.0982 338.864 73.3443 339.752 72.2371 340.364C71.4675 340.843 72.6375 340.985 73.0538 340.757C74.483 339.964 75.3547 338.982 76.0065 337.475C76.2106 337.003 75.0563 337.294 74.9385 337.365C73.9569 338.33 72.936 338.542 71.8758 338.001C71.4753 337.129 71.5617 336.438 72.1271 335.935C72.881 335.511 74.2945 336.485 75.1662 336.87C75.4411 336.988 76.4698 336.846 76.352 336.375C75.8416 334.349 73.4307 331.231 71.2005 333.038C71.1219 333.1 71.0434 333.218 71.067 333.32C71.546 335.221 73.8391 337.812 75.8808 336.603C75.9986 336.532 76.1714 336.391 76.1321 336.234C75.6452 334.168 72.4569 331.428 70.2581 332.582C70.1089 332.661 70.0068 332.786 70.0068 332.951C70.0225 334.435 71.2712 335.174 72.5276 335.566C72.7632 335.645 73.9019 335.338 73.5485 334.946C72.402 333.697 70.1011 331.365 68.2085 332.566C67.3133 333.132 67.1719 334.2 66.8657 335.15C66.0725 337.639 65.3343 340.144 64.5647 342.642C65.0045 342.555 65.4443 342.469 65.884 342.383C65.6642 341.33 65.4521 340.27 65.2322 339.218C65.138 338.762 63.8423 339.092 63.9129 339.571C64.0464 340.514 64.282 341.11 64.7611 341.911C64.9574 342.241 66.0018 341.935 66.0332 341.574C66.2139 339.289 66.3866 336.995 66.5672 334.71C66.1275 334.797 65.6877 334.883 65.248 334.969C65.617 337.145 66.0332 339.265 66.7636 341.354C66.9285 341.833 68.0907 341.464 68.0829 341C68.0671 338.283 68.0436 335.558 68.0279 332.841C67.5881 332.959 67.1484 333.077 66.7086 333.195C67.007 335.896 67.4311 338.558 67.9886 341.22C68.0907 341.692 69.3236 341.33 69.3079 340.867C69.2294 338.362 69.1508 335.865 69.0802 333.36C68.6404 333.477 68.2006 333.595 67.7609 333.713C68.3499 335.872 68.931 338.04 69.5199 340.199C69.6456 340.678 70.855 340.309 70.8392 339.846C70.7843 337.859 70.7371 335.88 70.6822 333.894C70.2424 334.011 69.8027 334.129 69.3629 334.247C69.6456 336.139 70.211 337.804 71.1377 339.485C71.3654 339.901 72.5119 339.634 72.4569 339.131C72.2371 337.168 72.025 335.205 71.8051 333.242C71.3654 333.36 70.9256 333.477 70.4859 333.595C71.0434 335.511 71.601 337.42 72.1585 339.336C72.292 339.791 73.5721 339.453 73.4778 338.982C73.1873 337.467 73.1166 336.006 73.2736 334.475C72.881 334.608 72.4805 334.742 72.0879 334.875C72.8732 335.229 73.5171 335.747 74.0118 336.43C74.3024 336.76 75.5667 336.328 75.2369 335.912C74.7657 335.323 74.9463 335.464 74.2474 335.166C74.0197 335.072 72.8574 335.213 73.0616 335.66C73.5014 336.611 73.9019 337.192 74.7107 337.899C74.9777 338.134 76.1164 337.954 75.9829 337.467C75.4332 335.496 73.9569 334.459 71.9387 334.506C71.4596 334.498 70.5565 335.26 71.4439 335.236Z" fill="#272525"/>
<path d="M399.661 348.126C400.405 337.415 396.994 328.206 387.274 323.029C376.191 317.122 363.603 314.751 352.612 308.643C341.916 302.706 333.064 292.335 325.545 282.816C318.058 273.329 311.687 263.005 306.555 252.076C296.526 230.668 289.162 204.671 291.488 180.875C294.092 154.196 308.261 129.967 325.623 110.14C361.929 68.7028 429.347 53.0923 479.279 77.8645C491.339 83.8482 502.051 91.7698 512.469 100.234C516.747 103.706 520.933 107.349 524.514 111.55C526.948 114.418 528.684 117.426 530.652 120.619C532.59 123.75 535.086 126.386 536.993 129.61C544.713 142.601 547.472 156.32 549.565 171.125C550.604 178.472 551.363 185.867 551.875 193.261C552.417 201.09 553.409 209.523 552.479 217.32C550.914 230.435 544.356 244.387 538.434 256.029C532.528 267.624 525.366 278.584 517.166 288.676C508.392 299.481 498.408 309.278 487.557 317.991C477.806 325.819 467.451 330.594 469.28 344.949C469.42 346.111 472.923 345.321 472.753 344.018C471.621 335.105 475.434 329.71 482.395 324.641C487.402 320.998 492.239 317.138 496.905 313.076C506.097 305.046 514.577 296.195 522.126 286.614C536.745 268.059 547.813 246.759 554.324 224.048C558.339 210.066 555.781 193.819 554.216 179.511C552.557 164.366 550.759 148.461 543.752 134.741C540.62 128.618 536.729 123.502 533.102 117.782C529.738 112.48 526.017 107.892 521.351 103.66C511.818 94.9942 501.245 87.0106 490.115 80.5308C446.012 54.8285 386.623 60.8433 345.233 89.553C324.088 104.218 306.943 126.169 296.603 149.654C285.628 174.535 286.201 199.819 293.162 225.692C300.169 251.75 313.469 275.856 332.103 295.404C336.753 300.287 341.621 305.263 347.372 308.844C353.635 312.751 360.58 315.216 367.494 317.68C374.144 320.052 381.167 322.331 387.15 326.176C394.715 331.028 396.793 340.127 396.219 348.576C396.095 349.971 399.583 349.289 399.661 348.126Z" fill="#272525"/>
<path d="M396.383 348.607C399.886 353.257 408.195 353.459 413.435 353.97C421.326 354.73 428.86 355.381 436.642 353.629C445.059 351.738 453.616 351.227 462.018 349.273C465.863 348.374 470.529 347.46 472.11 343.476C472.56 342.359 469.087 342.762 468.638 343.91C467.15 347.677 458.654 348.002 455.306 348.824C449.741 350.203 443.897 350.11 438.269 351.413C431.154 353.056 424.876 352.839 417.714 352.25C412.459 351.816 403.157 351.971 399.592 347.258C398.91 346.312 395.546 347.506 396.383 348.607Z" fill="#272525"/>
<path d="M396.03 346.84C391.938 351.816 393.72 362.9 394.309 368.713C395.038 375.906 395.162 385.998 398.976 392.385C402.742 398.663 409.982 401.019 416.663 402.725C424.74 404.786 433.653 406.879 442.025 406.492C448.938 406.166 456.813 404.151 462.766 400.554C469.804 396.291 473.184 391.548 474.951 383.518C476.578 376.154 476.672 368.016 476.082 360.544C475.679 355.35 475.524 347.801 472.424 343.491C471.773 342.577 469.339 343.46 469.076 344.391C469.029 344.561 468.983 344.732 468.936 344.902C469.432 344.546 469.944 344.173 470.44 343.817C470.347 343.848 470.254 343.863 470.161 343.894C468.083 344.437 468.533 346.173 470.626 345.631C471.68 345.352 472.253 345.011 472.563 343.956C471.447 344.251 470.331 344.561 469.215 344.856C471.695 348.313 472.129 354.823 472.47 358.931C472.982 365.318 472.672 371.519 472.284 377.906C471.819 385.502 469.866 392.896 463.479 397.562C455.868 403.128 445.296 405.406 435.994 404.228C429.623 403.422 422.818 402.027 416.663 400.229C410.075 398.307 403.378 395.33 400.991 388.308C398.975 382.355 398.557 375.131 397.921 368.946C397.317 363.148 395.146 351.971 399.285 346.933C400.231 345.739 396.759 345.956 396.03 346.84Z" fill="#272525"/>
<path d="M403.319 397.95C402.079 401.531 403.164 407.593 404.109 411.205C405.024 414.693 406.853 417.095 410.31 418.18C414.852 419.607 420.03 419.545 424.711 419.886C430.168 420.289 435.811 420.692 441.268 420.242C445.872 419.855 450.336 418.382 454.863 417.514C457.901 416.94 461.622 416.491 464.35 414.925C471.869 410.631 471.047 401.469 471.047 394.09C471.047 393.021 467.574 393.672 467.574 395.02C467.574 403.578 468.226 412.662 457.731 415.018C450.91 416.553 443.717 418.429 436.757 418.351C429.858 418.273 422.293 418.335 415.534 416.832C410.31 415.669 408.047 413.53 407.272 408.275C406.791 405.066 405.706 400.632 406.776 397.516C407.194 396.338 403.722 396.772 403.319 397.95Z" fill="#272525"/>
<path d="M419.381 408.693C419.319 408.647 419.257 408.6 419.195 408.554C418.202 409.065 417.195 409.561 416.203 410.073C418.404 411.266 420.745 411.933 423.241 411.607C423.938 411.514 424.961 411.173 425.209 410.429C425.271 410.243 425.333 410.057 425.395 409.887C425.442 409.716 425.395 409.561 425.271 409.422C423.489 407.623 420.512 406.879 418.326 405.608C416.079 404.29 414.094 402.368 411.723 401.361C410.808 401.919 409.878 402.477 408.963 403.035C412.126 404.275 415.087 406.6 418.621 405.81C419.195 405.686 420.218 405.205 420.125 404.477C419.877 402.57 415.443 400.4 414.125 399.64C412.699 398.818 411.18 397.95 409.537 398.818C404.623 401.423 412.11 407.453 414.544 408.988C415.304 409.468 418.342 408.647 417.536 407.468C415.567 404.554 412.513 402.291 409.583 400.4C408.824 399.903 407.413 400.461 406.808 400.958C403.305 403.794 410.948 413.003 414.141 413.499C414.745 413.592 417.381 413.204 416.947 412.088C415.598 408.631 413.49 404.709 409.692 403.639C408.746 403.376 407.305 403.888 406.886 404.802C404.592 409.84 411.986 416.367 416.776 416.506C421.287 416.63 420.621 413.468 418.45 410.817C416.094 407.934 412.591 406.802 410.575 410.739C408.793 414.212 411.056 416.382 414.497 415.157C415.024 414.971 415.552 414.568 415.552 413.979C415.536 411.964 412.42 410.538 411.258 408.91C409.552 406.461 409.413 403.376 407.832 401.082C407.243 400.229 404.018 401.19 404.483 402.229C406.715 407.143 419.939 424.908 425.287 413.654C429.209 405.391 414.032 406.879 410.203 409.732C409.63 410.15 409.831 410.863 410.529 410.956C413.66 411.375 416.714 412.181 419.846 412.6C422.683 412.972 425.504 412.786 428.31 413.53C428.883 412.894 429.472 412.243 430.046 411.607C425.55 411.22 420.047 407.592 416.172 405.36C415.397 404.911 412.389 405.655 413.18 406.879C414.777 409.36 419.474 410.197 422.062 410.522C424.202 410.786 429.643 409.871 431.131 411.142C431.596 410.631 432.046 410.104 432.511 409.592C429.829 410.228 419.613 406.29 417.009 404.182C416.249 404.74 415.49 405.298 414.714 405.841C417.908 405.701 421.349 406.941 424.481 407.53C426.682 407.949 429.875 407.809 431.86 408.926C432.247 408.352 432.619 407.794 433.007 407.22C428.465 408.414 422.667 404.864 418.187 404.259C417.52 404.166 414.141 405.407 415.738 406.042C422.14 408.616 429.689 407.112 436.03 409.515C436.65 409.639 437.27 409.763 437.874 409.887C438.944 411.452 438.696 412.15 437.146 411.995C435.937 412.941 432.139 412.708 430.744 412.832C426.077 413.204 421.706 412.724 417.055 412.305C416.606 412.956 416.156 413.623 415.707 414.274C422.388 414.801 429.395 414.615 435.999 415.374C436.278 414.77 436.557 414.165 436.836 413.561C429.426 415.886 421.287 413.437 413.753 414.15C413.164 414.212 411.211 414.878 411.909 415.793C413.583 418.025 418.388 417.715 420.838 417.793C423.938 417.901 427.07 417.7 430.155 417.514C431.286 417.452 434.511 416.584 435.596 417.095C435.828 416.584 436.061 416.057 436.293 415.545C431.302 417.436 425.101 416.894 420.497 419.824C419.21 420.645 420.187 421.389 421.334 421.296C428.248 420.723 434.728 416.987 441.223 414.801C444.587 413.669 450.586 413.08 452.803 410.104C453.314 409.422 452.353 409.127 451.857 409.081C443.378 408.414 434.805 411.933 426.388 412.646C426.388 413.251 426.388 413.871 426.388 414.475C436.107 412.119 446.091 410.77 455.826 408.461C457.934 407.965 457.454 406.244 455.361 406.724C449.982 407.934 444.726 408.771 439.27 409.468C437.657 409.67 429.906 411.545 428.759 410.507C428.294 411.018 427.845 411.545 427.38 412.057C434.107 410.631 441.378 410.894 448.168 411.452C449.501 411.561 451.857 409.67 449.517 409.484C442.122 408.879 434.216 408.771 426.899 410.321C426.527 410.398 424.791 411.204 425.519 411.871C427.504 413.7 433.673 412.026 435.952 411.747C442.665 410.941 449.206 409.949 455.81 408.461C455.655 407.887 455.5 407.298 455.345 406.724C445.61 409.034 435.642 410.383 425.907 412.739C424.295 413.127 423.83 414.739 425.907 414.568C434.015 413.886 442.355 410.414 450.493 411.065C450.183 410.724 449.873 410.383 449.548 410.042C449.889 409.592 450.509 410.042 449.718 409.918C449.16 409.825 447.997 410.507 447.501 410.693C444.571 411.731 441.626 412.724 438.681 413.762C433.224 415.7 427.628 418.893 421.783 419.389C422.062 419.886 422.341 420.382 422.62 420.862C426.822 418.196 432.945 418.754 437.626 416.971C438.123 416.785 439.301 415.871 438.324 415.421C436.681 414.661 434.898 415.266 433.177 415.436C429.813 415.778 417.52 417.684 415.087 414.444C414.466 414.987 413.846 415.545 413.242 416.088C421.132 415.328 429.503 417.746 437.27 415.312C437.905 415.111 439.781 413.7 438.107 413.499C431.224 412.693 424 412.863 417.04 412.305C415.707 412.197 413.35 414.072 415.691 414.274C422.853 414.909 429.503 415.157 436.65 413.917C439.456 413.437 442.68 413.096 443.874 410.166C443.92 409.995 443.874 409.84 443.75 409.701C441.889 407.344 437.099 407.453 434.418 407.065C429.255 406.321 423.365 406.337 418.481 404.368C417.66 404.957 416.854 405.562 416.032 406.151C421.799 406.941 427.55 410.507 433.456 408.972C434.046 408.817 435.735 407.902 434.604 407.267C432.356 405.98 429.085 406.135 426.589 405.67C423.117 405.019 419.598 403.732 416.048 403.903C415.629 403.918 412.73 404.725 413.753 405.562C416.559 407.825 421.008 408.957 424.326 410.367C427.38 411.669 429.705 412.119 432.945 411.359C433.286 411.282 435.084 410.46 434.325 409.809C429.86 406.027 420.264 411.638 416.358 405.562C415.366 406.073 414.358 406.569 413.366 407.081C418.001 409.747 423.21 413.158 428.651 413.623C429.565 413.7 432.325 412.212 430.387 411.7C426.62 410.693 422.667 410.894 418.823 410.228C417.164 409.949 415.676 409.391 414.187 409.856C412.327 410.429 415.815 410.042 415.986 410.073C417.52 410.321 421.504 410.166 422.45 412.042C421.117 414.816 419.737 415.421 418.311 413.855C417.644 413.421 417.055 412.925 416.513 412.336C413.381 409.422 409.676 405.267 407.909 401.361C406.793 401.748 405.677 402.12 404.561 402.508C405.77 404.275 406.018 407.019 407.149 408.972C408.095 410.615 412.002 413.297 412.017 414.987C412.374 414.599 412.715 414.196 413.071 413.809C415.443 412.972 412.172 410.042 415.164 412.243C416.094 412.925 417.133 414.522 416.637 415.684C417.288 415.297 417.954 414.894 418.605 414.506C414.668 415.002 408.498 408.383 410.296 404.446C409.366 404.833 408.436 405.221 407.491 405.608C410.467 406.445 412.405 410.553 413.397 413.096C414.327 412.631 415.257 412.15 416.203 411.685C414.296 411.39 407.661 403.097 409.521 401.593C408.591 401.779 407.677 401.965 406.746 402.151C409.444 403.887 412.436 406.228 414.234 408.895C415.226 408.383 416.234 407.887 417.226 407.375C416.094 406.662 410.808 401.888 411.847 401.655C412.219 401.578 416.559 405.345 416.575 405.469C417.071 405.019 417.582 404.585 418.078 404.135C416.59 404.476 413.087 401.981 411.661 401.423C410.653 401.035 407.429 402.477 408.901 403.097C410.436 403.748 421.675 410.91 421.675 410.925C422.326 410.538 422.993 410.135 423.644 409.747C421.938 409.84 420.357 409.406 418.885 408.461C418.094 408.027 414.87 409.205 415.893 409.98C415.955 410.026 416.017 410.073 416.079 410.119C417.133 410.801 420.326 409.437 419.381 408.693Z" fill="#272525"/>
<path d="M451.087 412.041C447.041 413.203 442.948 414.009 438.762 414.443C436.499 414.676 434.205 414.474 432.035 415.141C431.368 415.343 429.539 416.707 431.197 416.955C439.972 418.257 450.373 416.815 459.024 415.203C459.69 415.079 462.232 413.699 460.326 413.296C456.264 412.444 451.412 412.506 447.289 412.599C444.653 412.661 442.266 412.723 440.189 414.459C440.034 414.583 439.739 414.955 439.848 415.203C442.979 422.086 465.209 416.738 462.542 411.948C460.93 409.049 450.622 410.273 448.653 410.475C443.832 410.971 435.445 412.273 432.19 416.459C431.818 416.939 432.283 417.358 432.748 417.435C438.328 418.489 444.126 415.87 449.257 413.932C453.582 412.289 460.326 410.63 463.488 406.909C463.876 406.46 463.38 405.995 462.93 405.933C457.566 405.096 451.722 407.002 446.389 407.778C443.103 408.258 438.809 407.747 435.879 409.545C434.577 410.335 435.569 411.141 436.716 411.017C442.033 410.459 447.459 409.545 452.745 408.599C454.683 408.258 458 407.917 458.977 405.871C459.148 405.53 459.163 405.158 458.745 404.987C452.373 402.429 444.064 404.925 437.507 405.251C437.352 405.871 437.212 406.491 437.057 407.111C444.173 405.437 451.49 404.6 458.76 404.026C458.481 403.53 458.202 403.034 457.923 402.553C453.629 405.452 445.676 406.196 442.994 411.11C442.483 412.041 443.754 412.18 444.374 412.103C448.761 411.653 452.962 409.498 456.714 407.281C458.342 406.305 462.713 404.414 462.853 402.119C462.915 401.143 461.457 401.344 460.884 401.468C455.613 402.646 451.412 406.894 446.203 408.134C446.513 408.661 446.824 409.188 447.118 409.715C452.559 407.018 462.372 405.716 466.232 400.538C466.573 400.073 466.154 399.624 465.674 399.562C463.38 399.236 461.488 400.476 460.434 402.538C459.954 403.483 461.178 403.577 461.814 403.53C464.418 403.375 465.751 401.515 466.868 399.298C467.643 397.732 464.232 398.414 463.628 399.22C461.302 402.367 459.814 406.041 457.52 409.235C458.605 409.266 459.675 409.281 460.76 409.312C461.953 407.002 465.131 400.941 467.55 399.732C466.744 399.654 465.937 399.561 465.131 399.484C465.968 404.135 461.194 409.064 458.45 412.382C459.566 412.32 460.682 412.258 461.798 412.196C462.667 408.909 465.24 402.817 468.216 400.74C467.317 400.802 466.418 400.848 465.519 400.91C467.178 403.499 464.062 410.366 462.496 412.444C463.581 412.475 464.651 412.49 465.736 412.521C466.247 411.529 466.744 410.537 467.209 409.514C467.844 408.196 465.534 408.491 464.899 408.77C460 410.893 455.536 414.118 450.234 415.234C450.885 415.374 451.552 415.498 452.203 415.637C451.288 413.436 467.116 406.057 467.395 405.948C466.697 405.623 466.015 405.282 465.317 404.956C463.256 406.816 460.713 408.305 458.31 409.7C456.776 411.219 455.024 411.777 453.04 411.359C454.311 409.901 455.799 408.739 457.489 407.871C459.551 406.677 456.435 406.258 455.334 406.847C452.249 408.46 448.622 410.01 445.258 410.878C441.863 411.762 439.863 412.025 443.94 411.327C449.784 410.32 455.365 407.948 461.318 407.514C461.318 406.909 461.318 406.289 461.318 405.685C455.024 407.204 448.978 408.909 442.483 409.56C440.235 409.793 434.964 410.568 439.491 409.064C441.01 408.553 442.607 408.212 444.173 407.84C449.474 406.615 454.885 405.933 460.202 404.724C459.768 404.259 459.334 403.794 458.884 403.344C455.319 405.251 451.521 405.778 447.599 406.336C444.963 406.708 440.142 408.103 437.646 406.801C437.414 407.312 437.181 407.84 436.949 408.351C440.266 407.049 444.545 407.514 448.064 407.018C452.218 406.429 456.342 405.483 460.574 405.778C460.264 405.437 459.954 405.096 459.628 404.755C457.21 409.328 445.986 411.87 441.506 413.234C439.522 413.839 437.491 414.118 436.081 415.746C435.678 416.195 436.189 416.66 436.639 416.722C442.421 417.668 447.893 415.715 453.598 414.986C453.443 414.428 453.303 413.87 453.148 413.312C446.994 415.668 439.46 416.211 432.934 416.18C432.081 416.18 429.213 417.838 431.197 418.102C435.275 418.675 439.398 418.737 443.475 418.164C443.196 417.668 442.917 417.187 442.638 416.691C440.886 417.59 436.375 417.947 434.406 417.931C433.538 417.931 430.701 419.621 432.67 419.854C439.786 420.737 446.436 419.513 452.993 416.66C456.714 415.048 464.651 411.808 465.488 407.188C465.767 405.607 462.574 406.878 462.14 407.374C461.86 407.685 461.581 407.995 461.318 408.305C460.326 409.421 463.814 409.219 464.558 408.382C464.837 408.072 465.116 407.762 465.379 407.452C464.263 407.514 463.147 407.576 462.031 407.638C461.38 411.265 454.45 414.025 451.645 415.25C446.25 417.59 440.7 418.722 434.825 417.993C434.251 418.629 433.662 419.28 433.089 419.916C436.887 419.947 441.413 419.497 444.824 417.745C446.188 417.048 445.087 416.118 443.987 416.273C440.53 416.753 436.809 416.722 433.352 416.242C432.779 416.877 432.19 417.528 431.616 418.164C439.181 418.21 447.444 417.482 454.543 414.753C456.078 414.164 455.675 412.878 454.094 413.079C450.575 413.529 447.103 414.381 443.599 414.939C437.445 415.916 441.026 415.451 442.328 414.908C443.925 414.242 445.63 413.823 447.258 413.25C452.001 411.575 460.295 409.715 462.884 404.863C463.256 404.15 462.558 403.887 461.938 403.84C457.07 403.499 452.389 404.615 447.599 405.251C443.615 405.778 439.367 405.468 435.585 406.956C435.058 407.173 433.941 408.01 434.887 408.506C438.344 410.32 443.553 408.801 447.133 408.289C452.032 407.592 456.652 406.754 461.054 404.398C462.806 403.468 460.76 402.786 459.737 403.018C456.14 403.84 433.011 405.824 433.631 411.002C433.662 411.281 434.096 411.436 434.298 411.483C443.32 413.219 453.102 409.529 461.783 407.436C463.395 407.049 463.845 405.452 461.783 405.607C456.295 406.01 450.838 407.762 445.506 409.095C442.855 409.746 439.243 410.242 437.569 412.645C437.243 413.11 437.615 413.56 438.127 413.622C444.514 414.366 452.017 410.769 457.489 407.902C456.776 407.561 456.047 407.219 455.334 406.878C453.303 408.057 446.234 412.428 450.249 414.536C452.063 415.498 456.931 412.707 458.31 411.994C461.705 410.227 465.255 408.15 468.108 405.576C469.534 404.274 466.697 404.336 466.03 404.584C463.938 405.375 447.149 412.847 448.73 416.645C449.025 417.358 450.125 417.172 450.699 417.048C456.373 415.854 461.039 412.552 466.263 410.273C465.488 410.025 464.728 409.777 463.953 409.529C463.488 410.537 462.992 411.545 462.481 412.537C461.69 414.102 465.116 413.405 465.72 412.614C467.875 409.762 470.96 403.127 468.728 399.639C468.278 398.926 466.511 399.468 466.03 399.809C462.139 402.522 459.489 408.227 458.295 412.723C457.892 414.226 461.225 413.048 461.643 412.537C464.713 408.832 469.503 403.824 468.573 398.631C468.418 397.763 466.573 398.166 466.154 398.383C462.341 400.29 459.365 405.685 457.504 409.312C456.714 410.847 460.14 410.211 460.744 409.39C463.039 406.196 464.511 402.522 466.852 399.375C465.767 399.344 464.697 399.329 463.612 399.298C463.504 399.53 462.512 401.67 462.279 401.685C462.744 402.011 463.194 402.352 463.659 402.677C465.007 400.073 456.59 404.011 455.985 404.259C452.575 405.685 449.056 406.708 445.738 408.351C443.909 409.25 445.01 410.335 446.653 409.932C451.877 408.677 456.094 404.429 461.333 403.266C460.682 403.049 460.016 402.832 459.365 402.615C459.163 405.902 446.544 410.056 444.839 410.242C445.304 410.568 445.754 410.909 446.219 411.234C448.622 406.847 456.171 406.274 460.062 403.639C461.318 402.786 460.388 402.073 459.225 402.166C451.629 402.77 444.002 403.701 436.577 405.437C435.491 405.685 434.22 407.39 436.127 407.297C439.103 407.157 442.033 406.723 444.994 406.429C447.165 406.227 450.156 405.933 452.42 406.181C453.412 406.289 455.195 405.84 453.52 406.661C452.172 407.328 449.893 407.188 448.374 407.406C444.638 407.917 440.902 408.754 437.15 409.157C437.429 409.653 437.708 410.149 437.987 410.63C439.336 409.808 444.405 409.963 445.862 409.746C449.149 409.266 452.544 408.506 455.861 408.289C457.396 408.181 458.729 407.297 457.07 408.677C456.032 409.545 454.311 409.901 453.071 410.444C448.932 412.227 444.436 414.304 440.003 415.172C436.623 415.839 437.057 415.358 439.941 414.304C442.235 413.467 444.622 412.878 447.056 412.568C447.738 412.475 458.109 411.436 458.791 413.002C459.38 414.366 454.357 415.978 453.489 416.118C451.304 416.583 449.071 416.629 446.824 416.226C446.824 415.684 446.824 415.156 446.839 414.614C448.885 413.746 456.094 414.831 458.171 415.25C458.605 414.614 459.039 413.978 459.473 413.343C451.335 414.862 441.506 416.35 433.29 415.141C433.011 415.746 432.732 416.35 432.453 416.955C435.042 416.164 438.406 416.474 441.088 416.102C444.622 415.622 448.064 414.831 451.49 413.854C453.613 413.188 453.179 411.436 451.087 412.041Z" fill="#272525"/>
<path d="M393.406 358.063C396.197 358.59 399.096 361.272 401.917 362.078C405.529 363.117 409.435 363.535 413.156 363.892C420.984 364.636 428.952 363.675 436.812 363.969C443.478 364.233 450.392 365.302 456.996 364C461.848 363.039 469.041 363.179 473.257 360.342C475.288 358.993 472.172 358.761 471.102 359.319C470.808 359.474 470.498 359.629 470.203 359.784C468.141 360.853 471.211 361.396 472.358 360.807C472.653 360.652 472.963 360.497 473.257 360.342C472.544 360.001 471.815 359.66 471.102 359.319C469.366 360.481 466.622 360.202 464.669 360.512C460.964 361.117 457.368 362.295 453.601 362.574C447.09 363.039 440.47 361.985 433.944 361.97C426.751 361.954 419.481 362.497 412.35 361.628C408.8 361.194 405.002 360.807 401.715 359.319C399.313 358.234 398.134 356.668 395.546 356.187C394.429 355.97 391.453 357.691 393.406 358.063Z" fill="#272525"/>
<path d="M397.335 371.721C410.124 378.355 427.098 376.635 441.066 377.472C448.057 377.89 454.134 377.115 461.001 376.17C465.528 375.55 470.287 375.751 474.473 373.689C475.914 372.992 475.666 371.876 474.023 372.015C473.573 372.046 473.124 372.093 472.674 372.124C472.054 372.17 470.845 372.573 470.706 373.302C470.675 373.441 470.644 373.596 470.613 373.736C470.349 375.053 473.852 374.495 474.085 373.302C474.116 373.162 474.147 373.007 474.178 372.868C473.527 373.255 472.86 373.658 472.209 374.046C472.659 374.015 473.108 373.968 473.558 373.937C473.403 373.379 473.263 372.821 473.108 372.263C469.837 373.86 465.078 373.705 461.482 374.247C455.018 375.209 449.003 375.891 442.43 375.503C428.928 374.712 412.449 376.449 400.125 370.046C399.086 369.519 395.908 370.992 397.335 371.721Z" fill="#272525"/>
<path d="M396.798 386.029C402.844 389.75 409.432 391.625 416.532 392.028C423.911 392.447 431.383 392.819 438.762 393.113C445.661 393.393 452.9 393.191 459.721 392.152C464.046 391.486 469.549 391.47 473.254 388.974C473.952 388.509 474.246 387.781 473.239 387.517C473.115 387.486 472.991 387.455 472.867 387.409C471.766 387.114 468.79 388.773 470.743 389.3C470.867 389.331 470.991 389.362 471.115 389.408C471.115 388.928 471.099 388.432 471.099 387.951C468.263 389.843 462.372 390.06 458.946 390.463C451.846 391.315 444.359 391.501 437.243 390.912C424.407 389.843 410.936 391.362 399.542 384.339C398.597 383.75 395.388 385.161 396.798 386.029Z" fill="#272525"/>
<path d="M540.506 84.5919C540.832 84.8554 558.783 69.617 560.504 68.1753C562.674 66.3461 564.751 64.4083 566.859 62.5171C567.929 61.5559 569.898 58.8741 571.122 58.6105C573.293 58.1455 572.921 59.2616 574.176 61.3234C575.308 63.1836 576.548 64.9044 577.788 66.6871C578.811 68.1443 582.129 71.8803 581.555 73.57C581.788 73.7095 582.036 73.8645 582.268 74.0041C580.951 74.0971 579.649 74.2831 578.362 74.5776C574.378 75.4302 570.456 76.8099 566.534 77.988C557.543 80.6854 548.148 84.9174 538.723 85.46C537.514 85.5375 535.638 87.4133 537.809 87.4133C538.32 87.4133 538.847 87.4133 539.359 87.4133C540.661 87.4133 543.048 85.4445 540.708 85.4445C540.196 85.4445 539.669 85.4445 539.157 85.4445C538.847 86.0956 538.553 86.7467 538.243 87.3978C550.086 86.7002 561.93 81.2435 573.231 77.895C576.347 76.9649 580.238 76.8719 583.198 75.6627C583.772 75.4302 584.439 75.3682 584.811 74.7792C586.485 72.2368 582.377 67.3072 580.997 65.3384C579.277 62.8581 576.889 56.1923 573.928 55.3086C571.262 54.518 568.828 57.6184 567.278 59.0911C557.682 68.1598 546.66 75.5698 537.189 84.7625C536.972 84.9795 536.615 85.4445 536.971 85.7236C537.065 85.8011 537.158 85.8786 537.266 85.9561C538.227 86.7312 541.452 85.367 540.506 84.5919Z" fill="#272525"/>
<path d="M284.483 111.008C284.545 112.14 284.468 111.907 285.258 112.713C286.25 112.202 287.258 111.706 288.25 111.194C283.739 108.295 278.98 106.016 274.546 102.854C270.779 100.157 267.028 97.3973 263.183 94.824C259.385 92.2816 255.339 90.0648 251.34 87.8325C249.588 86.8559 246.984 86.7164 247.929 83.957C248.239 83.0424 251.712 81.2907 252.471 80.7636C256.58 77.8493 261.463 74.5783 266.253 72.9351C269.307 71.8965 269.57 73.3382 271.337 76.02C272.841 78.2988 274.066 80.8411 275.213 83.3215C279.414 92.4366 281.445 102.265 285.646 111.38C286.188 112.543 289.227 111.721 289.118 110.45C289.103 110.326 289.103 110.202 289.087 110.078C288.994 108.946 285.506 109.675 285.615 111.008C285.63 111.132 285.63 111.256 285.646 111.38C286.808 111.07 287.956 110.76 289.118 110.45C286.312 104.358 284.638 98.0639 282.421 91.7701C280.112 85.1972 277.073 79.2289 273.709 73.1521C272.345 70.6873 271.663 68.9976 268.578 69.6022C266.02 70.0983 263.199 72.3616 260.92 73.5242C258.114 74.9504 255.324 76.3921 252.673 78.0818C250.301 79.601 244.054 82.2828 243.744 85.3522C243.465 88.0806 249.433 90.0338 251.107 90.995C257.82 94.824 264.129 99.025 270.376 103.552C275.228 107.071 280.468 109.675 285.46 112.884C286.204 113.364 289.413 112.341 288.452 111.365C288.281 110.946 288.095 110.512 287.925 110.093C287.894 108.962 284.406 109.675 284.483 111.008Z" fill="#272525"/>
<path d="M267.05 231.412C252.23 236.466 236.899 234.916 221.722 237.83C219.18 238.326 212.127 238.481 210.421 240.946C209.414 242.403 210.22 242.868 210.871 244.14C212.483 247.302 214.545 249.953 215.739 253.487C216.87 256.851 217.072 261.641 221.583 261.269C225.768 260.928 230.652 256.433 233.923 254.107C240.216 249.627 246.898 245.814 253.254 241.442C256.571 239.148 259.919 237.102 263.671 235.567C265.531 234.807 267.066 234.358 268.678 233.118C270.228 231.924 266.787 231.862 265.888 232.544C262.803 234.9 257.827 236.032 254.432 238.171C249.859 241.055 245.161 243.891 240.712 246.93C236.434 249.86 232.217 253.007 227.799 255.704C225.489 257.115 222.746 259.517 220.343 256.495C218.948 254.743 218.42 250.247 217.537 248.108C216.793 246.31 215.987 245.178 214.948 243.612C213.103 240.838 214.111 241.334 217.01 240.683C223.009 239.334 228.993 238.481 235.116 238.032C246.309 237.21 256.772 236.776 267.515 233.118C269.531 232.466 269.128 230.715 267.05 231.412Z" fill="#272525"/>
<path d="M594.703 219.816C593.602 219.816 592.502 219.816 591.417 219.816C590.967 220.467 590.518 221.134 590.068 221.785C601.57 221.614 613.026 220.7 624.482 219.707C627.366 219.459 630.265 219.227 633.133 218.808C635.442 218.467 636.372 217.444 636.621 219.568C636.791 221.01 635.489 224.157 635.055 225.583C634.078 228.807 632.605 231.954 631.179 234.992C630.032 237.442 628.792 239.783 627.056 241.875C625.428 243.829 625.583 244.015 623.723 242.511C620.095 239.566 616.499 236.558 612.623 233.892C609.135 231.504 605.647 228.606 601.803 226.792C598.718 225.335 592.44 223.676 590.595 220.421C589.789 220.901 588.983 221.382 588.177 221.878C588.75 221.847 589.308 221.816 589.882 221.785C591.169 221.723 593.556 219.692 591.231 219.816C590.657 219.847 590.099 219.878 589.525 219.909C589.107 219.925 586.58 220.421 587.107 221.366C590.084 226.621 599.307 228.311 603.927 231.613C607.322 234.047 610.825 236.357 614.22 238.868C616.235 240.356 618.313 241.736 620.126 243.472C620.979 244.294 621.537 245.58 622.622 246.154C626.234 248.092 628.792 244.015 630.575 241.55C635.768 234.295 638.372 225.614 640.93 217.196C640.977 217.026 640.93 216.871 640.806 216.731C639.643 215.63 638.868 215.785 637.303 216.002C632.823 216.623 628.42 217.506 623.847 217.894C613.042 218.824 602.237 219.661 591.386 219.831C590.099 219.847 587.681 221.8 590.037 221.8C591.138 221.8 592.238 221.8 593.323 221.8C594.657 221.785 597.044 219.816 594.703 219.816Z" fill="#272525"/>
<path d="M291.642 333.058C291.735 332.965 291.844 332.872 291.937 332.763C291.006 332.577 290.076 332.376 289.146 332.19C280.946 340.421 273.319 349.862 266.761 359.442C265.459 361.349 262.483 364.031 264.451 366.139C265.955 367.751 269.893 367.55 271.908 367.736C276.171 368.139 280.481 369.658 284.713 369.86C286.356 369.937 287.627 369.86 288.666 368.294C289.673 366.775 289.425 363.457 289.565 361.737C289.813 358.838 289.859 355.923 290.076 353.024C290.324 349.784 290.603 346.529 290.975 343.305C291.316 340.297 291.068 336.809 292.479 334.158C291.363 334.22 290.247 334.282 289.131 334.344C289.115 334.469 289.115 334.593 289.1 334.717C288.991 336.112 292.479 335.445 292.572 334.282C292.588 334.158 292.588 334.034 292.603 333.91C292.712 332.469 289.658 333.306 289.255 334.096C287.596 337.212 287.813 340.251 287.503 343.754C287.146 347.986 286.588 352.203 286.371 356.45C286.278 358.14 286.79 366.635 285.596 367.55C284.542 368.356 277.334 366.139 276.109 365.984C274.264 365.767 271.784 366.155 270.094 365.426C266.994 364.093 267.8 362.775 269.412 360.388C270.683 358.497 272.001 356.652 273.365 354.823C279.023 347.196 285.271 339.491 291.968 332.779C293.394 331.353 289.999 331.399 289.177 332.205C289.084 332.298 288.976 332.391 288.883 332.5C287.41 333.91 290.82 333.864 291.642 333.058Z" fill="#272525"/>
<path d="M561.844 299.93C564.867 305.682 570.913 309.201 576.757 311.603C580.028 312.937 583.438 313.913 586.802 314.983C589.67 315.897 595.189 316.781 597.406 319.122C597.592 318.719 597.762 318.331 597.948 317.928C597.111 318.486 595.483 318.238 594.46 318.703C592.74 319.494 591.654 320.874 590.368 322.253C588.104 324.687 576.385 336.639 573.641 333.849C572.463 332.655 572.757 327.571 572.06 325.819C570.711 322.455 569.161 319.261 568.045 315.789C566.975 312.534 565.72 309.309 565.301 305.899C565.037 303.697 565.456 301.837 564.045 299.961C563.332 299.016 559.984 300.209 560.821 301.326C562.015 302.907 561.689 304.519 561.829 306.302C562.015 308.689 562.619 310.627 563.348 312.89C564.541 316.657 565.72 320.409 567.316 324.036C568.138 325.912 569.114 327.648 569.549 329.679C569.905 331.384 569.208 333.709 569.874 335.244C570.572 336.825 570.618 336.98 572.401 337.027C576.943 337.135 583.531 331.694 586.864 329.136C589.624 327.012 591.422 324.036 594.088 321.866C596.057 320.269 598.119 320.269 600.103 318.967C600.444 318.734 601.064 318.207 600.646 317.773C597.654 314.611 591.034 313.789 586.973 312.503C579.113 310.007 569.44 306.844 565.332 299.031C564.696 297.822 561.332 298.954 561.844 299.93Z" fill="#272525"/>
<path d="M322.409 176.846C324.936 189.201 327.711 201.509 330.873 213.725C332.377 219.538 334.067 225.305 335.617 231.118C336.656 234.994 337.508 240.249 340.237 243.38C340.795 244.016 342.903 243.427 342.81 242.497C342.655 240.962 342.05 239.753 341.213 238.482C340.733 237.737 338.144 238.606 338.733 239.52C339.585 240.807 339.989 241.737 340.144 243.21C340.996 242.915 341.849 242.621 342.717 242.326C339.772 238.947 339.043 233.071 337.896 228.901C336.299 223.026 334.609 217.197 333.106 211.307C330.114 199.649 327.494 187.914 325.076 176.133C324.874 175.218 322.208 175.869 322.409 176.846Z" fill="#272525"/>
<path d="M321.12 161.204C319.554 161.638 318.918 162.739 318.934 164.304C318.965 166.01 319.786 167.11 321.275 167.901C321.957 168.257 323.135 167.87 323.569 167.281C324.577 165.947 325.755 163.514 325.166 161.824C324.329 159.452 320.577 160.739 320.779 163.033C320.856 163.901 323.538 163.328 323.445 162.32C323.429 162.165 323.429 162.01 323.445 161.839C322.918 161.871 322.391 161.902 321.864 161.933C323.739 162.661 321.879 166.211 321.104 167.219C321.864 167.017 322.639 166.8 323.398 166.599C322.468 166.103 321.864 165.498 321.678 164.444C321.616 164.041 321.585 163.638 321.631 163.235C321.647 163.064 321.693 162.909 321.709 162.739C321.755 162.258 322.174 162.32 321.476 162.506C321.864 162.398 322.778 162.041 322.623 161.483C322.484 160.971 321.476 161.111 321.12 161.204Z" fill="#272525"/>
<path d="M353.254 170.969C351.952 173.821 352.96 174.937 353.875 177.697C354.96 180.921 355.378 184.564 356.153 187.882C357.781 194.842 359.068 201.771 359.982 208.871C360.835 215.522 361.61 222.172 362.292 228.838C362.804 233.861 363.455 239.86 366.168 244.231C366.602 244.929 368.602 244.247 368.741 243.549C369.02 242.123 368.974 240.914 368.912 239.441C368.881 238.604 366.199 239.131 366.245 240.154C366.354 241.395 366.307 242.635 366.075 243.875C366.927 243.642 367.78 243.41 368.648 243.193C365.873 238.728 365.377 232.372 364.881 227.288C364.261 220.885 363.47 214.53 362.664 208.158C361.874 201.942 360.897 195.803 359.44 189.695C358.696 186.595 357.983 183.479 357.301 180.363C356.556 177.03 354.386 173.992 355.936 170.612C356.277 169.837 353.642 170.101 353.254 170.969Z" fill="#272525"/>
<path d="M354.057 169.93C359.405 169.883 364.723 169.542 369.838 171.433C373.807 172.891 377.651 175.092 380.798 177.944C386.487 183.107 389.758 193.245 390.471 200.779C391.386 210.406 388.053 219.877 382.379 227.582C379.915 230.93 377.481 235.224 374.272 237.922C371.605 240.169 368.179 240.247 365.591 242.572C366.397 242.588 367.187 242.603 367.993 242.619C368.024 242.433 368.071 242.262 368.102 242.076C368.304 241.069 365.622 241.503 365.436 242.417C365.405 242.603 365.358 242.774 365.327 242.96C365.11 244.045 367.389 243.316 367.73 243.006C369.652 241.286 371.962 241.301 374.055 240.154C375.403 239.41 376.52 238.294 377.574 237.177C380.752 233.767 383.697 229.582 386.27 225.691C391.572 217.645 394.347 208.003 392.952 198.391C391.743 189.927 388.053 180.301 381.046 175.092C373.001 169.108 364.831 168.364 355.127 168.442C354.104 168.426 352.274 169.945 354.057 169.93Z" fill="#272525"/>
<path d="M428.185 174.102C422.03 173.574 415.969 173.559 409.799 173.233C407.706 173.125 404.017 172.334 402.436 174.458C401.583 175.621 401.924 177.155 401.955 178.489C402.048 182.023 401.831 185.573 402.033 189.107C402.436 195.882 402.792 202.563 402.885 209.353C402.978 216.313 402.002 223.227 401.955 230.203C401.94 233.211 400.963 238.528 402.994 241.21C405.474 244.465 411.536 243.008 414.961 243.008C418.093 243.008 421.255 243.194 424.387 243.147C426.727 243.116 428.882 242.264 431.192 242.202C432.184 242.171 434.013 240.636 432.231 240.698C430.448 240.745 428.898 241.163 427.115 241.411C424.588 241.752 422.061 241.52 419.519 241.52C415.69 241.504 406.079 243.008 404.808 238.605C403.769 235.055 404.591 229.304 404.668 225.785C404.777 220.98 405.536 216.22 405.567 211.415C405.66 200.811 404.622 190.332 404.622 179.744C404.622 177.651 404.095 175.094 406.823 174.582C408.389 174.288 410.667 174.815 412.28 174.815C417.302 174.815 422.139 175.202 427.13 175.621C428.169 175.698 429.967 174.257 428.185 174.102Z" fill="#272525"/>
<path d="M401.966 208.097C405.501 208.407 409.004 209.43 412.585 209.709C416.337 210.004 420.119 209.756 423.886 209.725C424.878 209.709 426.708 208.206 424.925 208.221C420.956 208.252 416.988 208.5 413.035 208.128C409.64 207.818 406.353 206.888 403.005 206.593C401.982 206.485 400.184 207.927 401.966 208.097Z" fill="#272525"/>
<path d="M445.903 230.854C445.329 231.598 445.329 231.629 444.941 232.482C445.825 232.373 446.724 232.265 447.608 232.141C448.398 220.545 447.67 208.671 447.67 197.044C447.67 190.208 447.422 183.356 447.67 176.535C447.778 173.683 447.995 170.846 448.429 168.025C448.538 167.327 448.708 164.924 449.127 164.196C449.778 163.08 448.755 163.359 449.825 164.134C451.669 165.482 453.142 168.939 454.336 170.861C456.18 173.822 457.917 176.83 459.591 179.884C462.35 184.906 464.939 190.037 467.543 195.138C470.225 200.393 472.923 205.648 475.418 211.012C477.558 215.6 479.294 220.452 482.162 224.653C482.983 224.312 483.805 223.956 484.642 223.615C484.471 223.429 484.301 223.227 484.131 223.041C483.526 222.359 480.968 223.32 481.65 224.08C481.821 224.266 481.991 224.467 482.162 224.653C482.735 225.305 485.262 224.514 484.642 223.615C480.782 217.957 478.519 211.058 475.527 204.919C472.489 198.703 469.311 192.564 466.117 186.426C463.327 181.046 460.443 175.698 457.25 170.52C455.715 168.04 452.863 160.987 449.22 161.405C446.166 161.762 446.12 166.118 445.779 168.35C444.833 174.628 444.91 181 444.988 187.325C445.065 194.332 445.034 201.338 445.034 208.345C445.034 216.344 445.515 224.498 444.972 232.466C444.895 233.676 447.313 232.823 447.639 232.125C447.902 231.707 448.166 231.304 448.414 230.885C449.111 229.971 446.445 230.172 445.903 230.854Z" fill="#272525"/>
<path d="M444.996 204.841C449.987 204.779 454.901 204.252 459.815 203.322C461.645 202.981 463.458 202.609 465.272 202.206C467.349 201.741 470.589 200.051 472.605 199.973C473.597 199.927 475.426 198.392 473.643 198.47C470.155 198.609 466.946 200.454 463.52 201.182C457.723 202.407 451.971 203.275 446.034 203.337C445.042 203.353 443.213 204.872 444.996 204.841Z" fill="#272525"/>
<path d="M521.342 170.458C516.258 162.335 508.181 157.777 499.453 158.614C492.291 159.296 484.075 164.272 483.951 173.589C483.765 186.456 495.733 191.742 504.089 196.036C511.545 199.881 518.97 204.996 519.87 215.321C521.032 228.699 510.413 239.101 498.926 234.481C497.872 234.062 495.454 235.21 497.361 235.969C512.553 242.077 530.287 225.133 520.49 206.81C515.095 196.718 503.995 194.935 495.903 189.06C489.114 184.13 483.657 174.457 489.687 166.04C497.655 154.94 512.134 160.97 518.35 170.892C518.955 171.884 521.931 171.419 521.342 170.458Z" fill="#272525"/>
<path d="M408.208 41.3729C405.712 39.7141 404.534 33.5598 403.356 30.9555C401.604 27.111 399.574 23.4215 397.481 19.7631C395.543 16.3836 393.528 13.0507 391.667 9.64026C389.513 5.70275 392.753 6.55537 395.713 5.78027C397.868 5.2222 403.681 1.73424 405.278 2.43183C407.216 3.29995 406.968 9.33024 407.03 10.9269C407.402 21.4218 405.914 31.7771 405.681 42.241C406.844 42.0084 407.991 41.7914 409.154 41.5589C409.154 41.4349 409.154 41.2953 409.154 41.1713C409.154 40.1017 405.681 40.7528 405.681 42.1015C405.681 42.2255 405.681 42.365 405.681 42.489C405.681 43.5431 409.138 42.8921 409.154 41.8069C409.433 29.5293 412.037 16.7402 410.053 4.49363C409.712 2.35435 409.557 0.49407 407.309 0.0445123C406.069 -0.20352 404.968 0.649098 403.899 1.02115C400.24 2.27681 396.752 3.82704 392.908 4.49363C391.094 4.80367 387.73 4.72613 386.986 6.98943C386.226 9.29922 389.885 13.5933 390.815 15.221C394.473 21.5613 398.38 27.8551 401.093 34.676C402.271 37.6214 402.658 41.2023 405.449 43.0626C406.379 43.6827 409.588 42.2875 408.208 41.3729Z" fill="#272525"/>
</svg>
