<svg width="299" height="64" viewBox="0 0 299 64" fill="none" xmlns="http://www.w3.org/2000/svg">
<path d="M32.7451 43.5753C32.9099 43.0567 33.2643 42.6235 33.8083 42.2755C34.3504 41.8811 34.9234 41.6715 35.5271 41.6467C35.7129 41.6391 35.9935 41.6741 36.3689 41.7518C37.731 42.0681 38.4368 42.8301 38.4864 44.0376C38.5302 45.1059 38.1105 46.2164 37.2273 47.3691C37.3354 47.7369 37.3952 48.0601 37.4066 48.3388C37.4314 48.9426 37.3168 49.5521 37.0629 50.1673C36.8555 50.7806 36.53 51.3522 36.0865 51.8822C35.9776 52.631 35.7953 53.2898 35.5395 53.8586C35.3282 54.379 34.9814 54.998 34.4991 55.7156C33.9722 56.4816 33.4368 57.0386 32.8928 57.3866C32.3933 57.6862 31.6849 57.9944 30.7674 58.3111C30.5618 58.9709 30.215 59.5899 29.727 60.1682C29.2371 60.7001 28.6205 60.9812 27.8774 61.0117C27.5059 61.0269 27.1082 60.9735 26.6845 60.8513C26.3746 61.2362 25.9226 61.5571 25.3283 61.8141C24.7786 62.0227 24.2018 62.1394 23.598 62.1642C22.8085 62.1966 22.1748 62.0597 21.697 61.7537C21.1492 62.0088 20.4341 62.1544 19.5516 62.1906C18.3905 62.2382 17.2682 62.0981 16.1847 61.7704C15.1012 61.4426 14.2414 60.8964 13.6052 60.1316C12.4944 60.2702 11.555 60.0528 10.7871 59.4795C10.1216 59.1346 9.6865 58.7338 9.48167 58.2769C7.72892 57.5114 6.83005 56.013 6.78506 53.7817C5.92619 53.2587 5.27347 52.6574 4.82689 51.9779C4.37841 51.2519 4.0152 50.3363 3.73726 49.2312C3.35046 48.8748 3.14468 48.3948 3.11991 47.791C3.10848 47.5123 3.12218 47.2792 3.16101 47.0915C2.72586 46.6906 2.494 46.1419 2.46543 45.4452C2.45209 45.1201 2.50843 44.7921 2.63443 44.4613C1.95562 43.7913 1.58955 42.806 1.53622 41.5056C1.4886 40.3444 1.7069 39.4283 2.19113 38.7571C1.84696 38.306 1.66345 37.8018 1.64059 37.2444C1.62345 36.8264 1.72147 36.3804 1.93464 35.9064C1.69099 35.6373 1.55202 35.0847 1.51773 34.2487C1.47963 33.3198 1.58087 32.3852 1.82144 31.4449C2.06011 30.4581 2.38178 29.7936 2.78645 29.4513C2.63569 29.1784 2.54983 28.7864 2.52888 28.2755C2.4984 27.5324 2.58594 26.831 2.7915 26.1712C3.0435 25.5096 3.40077 25.146 3.86332 25.0805C3.82331 24.1052 4.18667 23.3226 4.95337 22.7329C4.88026 22.0846 5.08296 21.3552 5.56147 20.5446C6.08643 19.7322 6.69153 19.1724 7.37678 18.8651C7.4742 17.8376 7.85697 16.9613 8.52507 16.236C9.19317 15.5108 9.94332 15.0846 10.7755 14.9574C10.9906 14.5298 11.3943 14.1644 11.9867 13.8609C12.6236 13.5092 13.2439 13.3209 13.8477 13.2961C14.3121 13.2771 14.7107 13.3538 15.0435 13.5262C15.7135 12.8474 16.4897 12.4899 17.3722 12.4537C18.1153 12.4232 18.6106 12.589 18.858 12.9511C19.2258 12.8429 19.549 12.7831 19.8277 12.7717C20.6637 12.7374 21.3031 13.0136 21.7458 13.6003C21.9259 13.4533 22.2017 13.3722 22.5733 13.357C23.2235 13.3303 23.951 13.4865 24.7558 13.8257C25.6052 14.1166 26.1062 14.4217 26.2588 14.7411C27.2418 14.8868 28.1443 15.3383 28.9662 16.0955C29.7863 16.8062 30.1428 17.5593 30.0358 18.3545C30.6994 18.653 31.1829 19.0984 31.4863 19.6907C31.7879 20.2366 31.9027 20.767 31.8307 21.2817C32.2621 21.5896 32.5579 21.9962 32.7182 22.5014C32.8766 22.9601 32.9809 23.235 33.0311 23.326C33.9924 24.0774 34.4978 25.057 34.5473 26.2645C34.5569 26.4967 34.5228 26.8005 34.4452 27.1759C34.4992 27.3598 34.532 27.5911 34.5434 27.8697C34.5758 28.6593 34.3015 29.3451 33.7206 29.9272C33.1842 30.461 32.5444 30.7431 31.8013 30.7736C31.0582 30.8041 30.3965 30.5521 29.8163 30.0176C28.4587 28.6776 27.6817 27.3137 27.4852 25.9261C26.9203 25.7632 26.4647 25.4329 26.1187 24.9354C25.7707 24.3914 25.6066 23.7933 25.6264 23.1412C25.1969 22.8796 24.8575 22.5446 24.6082 22.1362C24.4033 21.6793 24.3146 21.2177 24.342 20.7514C23.506 20.7857 22.8453 20.5569 22.3599 20.065C22.2225 20.1172 21.968 20.1509 21.5964 20.1661C21.0855 20.1871 20.5253 20.1403 19.9158 20.0257C19.3044 19.8647 18.8314 19.6747 18.4968 19.4558C18.3129 19.5099 18.0352 19.5446 17.6636 19.5598C17.1527 19.5808 16.8025 19.5486 16.6129 19.4633C16.0243 19.8596 15.4514 20.0692 14.8941 20.0921C14.7083 20.0997 14.3813 20.0666 13.913 19.9928C13.4192 20.4317 12.9411 20.684 12.4786 20.7494C12.4161 21.4964 12.2348 22.1784 11.9344 22.7955C11.6805 23.4107 11.3232 23.7743 10.8626 23.8862C10.9783 24.4398 10.9083 25.0009 10.6525 25.5697C10.3948 26.092 10.0171 26.5262 9.51957 26.8723C9.48837 27.2457 9.3875 27.6221 9.21695 28.0012C9.04451 28.334 8.82276 28.599 8.55171 28.7962C8.60768 29.0265 8.66555 29.3032 8.72533 29.6265C8.78321 29.9032 8.82072 30.2506 8.83786 30.6686C8.87786 31.644 8.49129 32.4274 7.67813 33.0191C7.7029 33.6229 7.60679 34.1153 7.3898 34.4964C7.64107 34.9513 7.77623 35.411 7.79528 35.8754C7.81433 36.3399 7.73859 36.7617 7.56804 37.1409C7.86576 37.5939 8.02319 38.0294 8.04034 38.4474C8.05748 38.8654 7.96137 39.3579 7.752 39.9247C7.54454 40.538 7.42806 41.1011 7.40257 41.6139C7.8301 41.829 8.16855 42.1407 8.41792 42.5492C8.66729 42.9577 8.8015 43.3942 8.82055 43.8586C8.8415 44.3695 8.72121 44.8397 8.45969 45.2691C8.83887 45.4397 9.13087 45.7533 9.3357 46.2102C9.54053 46.667 9.65342 47.1509 9.67437 47.6618C9.69532 48.1727 9.61958 48.5945 9.44713 48.9272C10.4918 49.4426 11.2123 49.9946 11.6086 50.5832C12.0495 51.1234 12.3885 52.0167 12.6257 53.2631C12.9565 53.3891 13.3376 53.606 13.769 53.914C14.2467 54.2201 14.5601 54.4864 14.7089 54.7129C15.4966 54.6341 16.317 54.7865 17.1701 55.1702C18.0678 55.5056 18.6926 55.9917 19.0444 56.6286C19.3135 56.385 19.7471 56.1811 20.3452 56.017C20.9878 55.8045 21.611 55.6859 22.2148 55.6612C22.865 55.6345 23.31 55.7093 23.5499 55.8856C24.1677 55.0693 24.9411 54.6422 25.87 54.6041C26.1487 54.5926 26.3586 54.6073 26.4999 54.648C27.2182 54.0137 27.7816 53.5719 28.1901 53.3226C28.5967 53.0267 29.0758 52.7977 29.6274 52.6356C29.6453 51.937 29.8963 51.2521 30.3806 50.5809C30.4118 50.2074 30.533 49.7605 30.7443 49.2401C30.9537 48.6732 31.1687 48.2457 31.3895 47.9575C31.3374 47.8201 31.3046 47.5888 31.2913 47.2637C31.2665 46.6599 31.4024 46.003 31.699 45.293C31.9936 44.5365 32.3423 43.964 32.7451 43.5753Z" fill="#C62E2A"/>
<path d="M76.4302 51.7628C76.8966 51.7902 77.3241 52.0053 77.7128 52.408C78.1015 52.8108 78.3992 53.2638 78.606 53.7671C78.8591 54.2685 78.944 54.6372 78.8607 54.8732C79.4409 55.4077 79.7481 56.0929 79.7824 56.9289C79.811 57.6256 79.6045 58.2621 79.1629 58.8385C78.7658 59.3666 78.2209 59.6913 77.528 59.8128C76.6939 59.8935 75.8204 59.5804 74.9074 58.8735C73.9945 58.1666 73.4745 57.397 73.3473 56.5648C72.7766 56.2625 72.1433 55.5674 71.4474 54.4794C70.7979 53.3895 70.4588 52.4962 70.4302 51.7995C69.8558 51.4044 69.2931 50.7296 68.7422 49.7752C68.1894 48.7744 67.9944 47.9915 68.1574 47.4265C67.4862 46.9423 66.9486 46.313 66.5447 45.5387C66.1853 44.716 65.9884 43.8867 65.9541 43.0507C65.2536 42.9863 64.654 42.5457 64.1553 41.7287C63.703 40.9099 63.4607 40.1057 63.4283 39.3161C63.0008 39.101 62.6381 38.767 62.3404 38.3139C62.0427 37.8609 61.8843 37.4022 61.8653 36.9377C61.8538 36.6591 61.9353 36.3766 62.1096 36.0903C61.6566 36.388 61.1747 36.5473 60.6638 36.5683C60.1529 36.5893 59.5908 36.496 58.9775 36.2885C58.3349 36.501 57.642 36.6225 56.8989 36.6529C56.2486 36.6796 55.8027 36.5816 55.5609 36.3589C54.8642 36.3875 54.3215 36.2004 53.9328 35.7976C53.5906 35.3929 53.4061 34.8655 53.3794 34.2152C53.3547 33.6115 53.4712 33.0484 53.7289 32.5261C54.033 32.0018 54.3718 31.7553 54.7453 31.7865C54.8344 31.6898 55.0628 31.5874 55.4306 31.4793C55.7983 31.3712 56.1912 31.3085 56.6092 31.2914C57.3523 31.2609 57.8902 31.3319 58.223 31.5043C58.9604 31.3345 59.631 31.2372 60.2348 31.2125C60.885 31.1858 61.2836 31.2625 61.4305 31.4426C61.9243 31.0036 62.4266 30.7737 62.9375 30.7527C63.3091 30.7375 63.6129 30.7715 63.8489 30.8549C64.1123 30.4719 64.6322 30.1017 65.4084 29.7442C66.2292 29.3383 66.8978 29.1946 67.4145 29.313C67.5831 28.8873 67.8977 28.6186 68.3584 28.5066C68.8171 28.3482 69.2574 28.3069 69.6792 28.3827C69.6621 27.9647 69.7842 27.5409 70.0458 27.1115C70.3073 26.6821 70.6229 26.4365 70.9925 26.3748C70.7801 25.7322 70.6624 25.1323 70.6396 24.5749C70.6129 23.9247 70.6849 23.41 70.8554 23.0308C70.5672 22.81 70.3458 22.5167 70.1912 22.1508C70.0812 21.7366 70.0641 21.3186 70.1398 20.8968C69.5151 20.4107 69.1003 19.9392 68.8955 19.4824C68.3362 19.4588 67.8371 19.2001 67.3982 18.7064C66.7982 18.824 66.3077 18.7744 65.9266 18.5574C65.5455 18.3404 65.1857 18.076 64.8473 17.7642C64.5088 17.4524 64.2429 17.2075 64.0495 17.0293C63.3273 17.5707 62.4786 17.8614 61.5032 17.9014C60.4814 17.9433 59.6795 17.6738 59.0974 17.0928C58.7411 17.4796 58.1217 17.6911 57.2392 17.7273C56.4032 17.7616 55.7221 17.6035 55.196 17.2529C54.8397 17.6396 54.2667 17.8492 53.4772 17.8816C52.6876 17.914 52.0549 17.8004 51.579 17.5408C51.8398 18.2279 51.9893 19.0359 52.0274 19.9648C52.0597 20.7544 51.9713 21.4326 51.7619 21.9995C52.1677 22.8203 52.3888 23.6719 52.4249 24.5543C52.4611 25.4368 52.302 26.0946 51.9476 26.5279C52.2491 27.0738 52.4123 27.6486 52.437 28.2524C52.4637 28.9026 52.2998 29.4444 51.9454 29.8776C52.427 30.2766 52.6888 30.987 52.7307 32.0087C52.7669 32.8912 52.6774 33.5462 52.4623 33.9737C52.7079 34.2893 52.9156 34.8158 53.0854 35.5532C53.2552 36.2906 53.3554 37.0309 53.3858 37.774C53.4125 38.4242 53.3638 38.938 53.2397 39.3153C53.3402 39.4972 53.4474 39.8417 53.5612 40.3488C53.6732 40.8095 53.7396 41.2952 53.7606 41.8061C53.8025 42.8279 53.6917 43.5303 53.4283 43.9133C53.927 44.7303 54.1935 45.5568 54.2278 46.3928C54.2545 47.043 54.0944 47.6776 53.7476 48.2966C54.345 49.2491 54.6712 50.3988 54.7265 51.7457C54.7741 52.9069 54.5762 53.7524 54.1327 54.2823C54.494 55.1515 54.6946 56.0737 54.7346 57.049C54.7804 58.1637 54.5398 59.104 54.0129 59.87C53.4842 60.5895 52.5928 60.975 51.3387 61.0265C50.5956 61.0569 49.9757 60.6869 49.4788 59.9164C49.0284 59.144 48.7823 58.2469 48.7404 57.2251C48.7042 56.3426 48.7917 55.6412 49.003 55.1208C48.5952 54.2536 48.3695 53.2858 48.3257 52.2176C48.2876 51.2887 48.3964 50.5399 48.6522 49.9711C48.2273 48.6859 47.9949 47.5556 47.9549 46.5803C47.9149 45.6049 48.0702 44.8542 48.4208 44.328C48.0416 44.1575 47.7273 43.868 47.478 43.4595C47.2731 43.0027 47.1602 42.5188 47.1393 42.0079C47.1012 41.079 47.3271 40.3486 47.8171 39.8168C47.6256 39.6851 47.4535 39.4595 47.3008 39.1401C47.1927 38.7724 47.131 38.4027 47.1158 38.0312C47.0777 37.1023 47.2202 36.6079 47.5434 36.5481C47.3984 36.4145 47.268 36.0709 47.1522 35.5174C47.0365 34.9639 46.9662 34.3852 46.9415 33.7814C46.9072 32.9454 46.9502 32.2923 47.0705 31.8222C46.6296 31.282 46.3901 30.5474 46.352 29.6185C46.3215 28.8754 46.4361 28.2659 46.6957 27.79C46.3999 27.3835 46.2377 26.8318 46.2092 26.1352C46.1806 25.4385 46.3639 24.8029 46.759 24.2284C46.448 23.4503 46.281 22.7825 46.2582 22.2252C46.2315 21.575 46.4186 21.0323 46.8194 20.5971C46.5293 20.3299 46.3515 19.965 46.2861 19.5025C46.2187 18.9935 46.1716 18.4139 46.145 17.7636C45.4426 17.6529 44.8951 17.3497 44.5026 16.854C44.1101 16.3583 43.9005 15.7854 43.8738 15.1352C43.8414 14.3456 44.0693 13.6617 44.5573 13.0834C45.0899 12.4567 45.7984 12.1485 46.6827 12.1588C46.6267 11.9285 46.8736 11.709 47.4233 11.5004C48.0195 11.2898 48.6427 11.1712 49.2929 11.1445C50.3147 11.1026 50.9987 11.3305 51.3447 11.828C51.6196 11.7237 51.9892 11.662 52.4537 11.643C53.1039 11.6163 53.549 11.6911 53.7888 11.8674C54.3328 11.5194 55.0228 11.3283 55.8588 11.294C56.8342 11.254 57.5394 11.4344 57.9746 11.8353C58.892 11.5185 59.6527 11.3477 60.2564 11.323C61.1389 11.2868 61.8219 11.4914 62.3054 11.9368C62.9461 11.6779 63.7541 11.5284 64.7294 11.4884C65.4726 11.458 66.1276 11.5474 66.6944 11.7568C67.2594 11.9197 67.6433 12.2063 67.8462 12.6167C67.9837 12.5646 68.1917 12.5328 68.4704 12.5213C69.0742 12.4966 69.6178 12.7069 70.1013 13.1523C70.6294 13.5494 70.9996 14.0692 71.2121 14.7118C72.1002 14.8149 72.7463 15.2537 73.1502 16.028C73.99 16.0866 74.5858 16.4343 74.9376 17.0712C75.3339 17.6598 75.5493 18.3721 75.5835 19.2081C76.1363 20.2089 76.4308 21.1506 76.467 22.033C76.4956 22.7297 76.3569 23.3169 76.0508 23.7947C76.2594 24.3444 76.3752 24.898 76.398 25.4553C76.4323 26.2913 76.1841 27.0459 75.6535 27.7189C75.6839 28.4621 75.5054 29.2138 75.1179 29.974C74.7285 30.6878 74.1892 31.1519 73.5002 31.3663C73.3391 31.9777 73.034 32.4787 72.5848 32.8693C72.1356 33.2599 71.5859 33.4685 70.9356 33.4952C70.7187 33.8763 70.405 34.1683 69.9946 34.3712C69.5823 34.5277 69.0994 34.6638 68.5459 34.7796C68.0388 34.8934 67.6246 35.0034 67.3033 35.1097C67.5838 35.1447 67.8266 35.3906 68.0314 35.8474C68.2343 36.2578 68.269 36.5355 68.1353 36.6806C68.5107 36.7582 68.8994 37.161 69.3014 37.8889C69.7016 38.5703 69.8425 39.1693 69.7241 39.6859C70.4284 39.8432 70.9806 40.2625 71.3807 40.9439C71.8273 41.6234 72.0696 42.4277 72.1077 43.3566C72.6879 43.891 73.1809 44.5687 73.5868 45.3894C73.9926 46.2102 74.1876 46.9931 74.1716 47.7381C74.93 48.0792 75.5102 48.6137 75.9122 49.3416C76.3142 50.0695 76.4869 50.8765 76.4302 51.7628Z" fill="#64A7DE"/>
<path d="M108.07 9.71091C108.521 9.36675 109.118 9.17943 109.861 9.14895C110.929 9.10514 112.012 9.40967 113.109 10.0625C113.62 10.0416 114.046 10.2334 114.388 10.6381C114.731 11.0428 114.914 11.547 114.939 12.1508C114.971 12.9404 114.768 13.6466 114.328 14.2694C113.888 14.8922 113.25 15.2208 112.414 15.2551C111.811 15.2798 111.153 15.1207 110.441 14.7777C110.085 15.1645 109.604 15.3703 109.001 15.3951C108.35 15.4217 107.667 15.2171 106.952 14.7813C106.497 15.0325 105.805 15.1772 104.876 15.2153C103.529 15.2706 102.476 15.1044 101.715 14.7169C101.032 15.0706 100.319 15.2627 99.5756 15.2931C98.9718 15.3179 98.3874 15.2488 97.8224 15.0859C97.2282 15.3429 96.6524 15.4828 96.095 15.5057C95.3519 15.5361 94.6002 15.3576 93.84 14.9701C93.023 15.4688 92.2913 15.778 91.6449 15.8975C92.0024 16.6738 92.2002 17.5263 92.2383 18.4552C92.2859 19.6164 92.0686 20.5557 91.5862 21.2734C92.1798 22.133 92.4984 23.0969 92.5422 24.1651C92.5765 25.0011 92.4018 25.8457 92.0181 26.6989C92.4552 27.1462 92.688 27.7181 92.7165 28.4148C92.7356 28.8793 92.5959 29.4433 92.2974 30.1068C92.7059 29.8575 93.2121 29.7204 93.8158 29.6956C94.2803 29.6766 94.6073 29.7097 94.7969 29.795C95.2926 29.4025 95.8423 29.1938 96.4461 29.1691C97.0498 29.1443 97.6641 29.375 98.2888 29.8611C98.8405 29.6989 99.3021 29.6102 99.6736 29.595C99.9059 29.5854 100.303 29.6157 100.864 29.6857C101.417 29.57 101.81 29.5073 102.042 29.4978C102.832 29.4654 103.42 29.6274 103.807 29.9837C104.169 29.7363 104.582 29.603 105.047 29.584C105.604 29.5611 105.957 29.6629 106.106 29.8894C106.518 29.733 106.84 29.65 107.073 29.6404C107.398 29.6271 107.843 29.7019 108.408 29.8648C108.998 29.5149 109.572 29.3286 110.129 29.3057C110.919 29.2733 111.605 29.5476 112.187 30.1285C112.767 30.663 113.072 31.2786 113.1 31.9753C113.125 32.579 112.937 33.0985 112.536 33.5337C112.135 33.9688 111.494 34.2277 110.614 34.3103C110.219 34.8848 109.533 35.1921 108.558 35.2321C107.676 35.2683 106.877 35.0684 106.161 34.6325C105.715 35.116 105.052 35.3759 104.169 35.4121C103.38 35.4445 102.722 35.2853 102.196 34.9347C101.835 35.2286 101.446 35.3842 101.028 35.4013C100.75 35.4127 100.514 35.3294 100.32 35.1512C99.8284 35.6366 99.1412 35.8974 98.2588 35.9336C97.6085 35.9603 96.999 35.8457 96.4303 35.5899C95.9753 35.8412 95.5853 35.9735 95.2602 35.9868C94.7958 36.0059 94.3246 35.8624 93.8469 35.5563C93.5294 35.7554 93.2787 35.882 93.0948 35.9361C92.9109 35.9901 92.6555 36.0006 92.3285 35.9675C92.7807 36.7863 93.0164 37.428 93.0355 37.8925C93.0526 38.3105 92.9333 38.8038 92.6775 39.3726C93.0178 39.7308 93.1994 40.1886 93.2223 40.746C93.2394 41.164 93.1414 41.61 92.9282 42.0839C93.2686 42.4422 93.4511 42.9232 93.4759 43.5269C93.4988 44.0843 93.3553 44.5554 93.0454 44.9403C93.3469 45.4862 93.5043 45.9217 93.5177 46.2468C93.5291 46.5255 93.3624 46.9976 93.0175 47.663C93.2109 47.8412 93.3142 48.0928 93.3276 48.418C93.3447 48.836 93.2168 49.1203 92.9439 49.2711C93.4255 49.6701 93.6796 50.1947 93.7063 50.8449C93.7158 51.0771 93.6855 51.4738 93.6155 52.035L94.0306 51.9481C94.5415 51.9272 95.0852 52.1375 95.6616 52.5791C96.3373 52.0396 97.2325 51.747 98.3472 51.7013C98.7652 51.6842 99.2083 51.7125 99.6766 51.7864C99.9419 51.4498 100.326 51.1782 100.829 50.9715C101.333 50.7647 101.886 50.649 102.49 50.6242C103.465 50.5842 104.217 50.7627 104.745 51.1598C105.005 50.6839 105.477 50.2923 106.162 49.9851C106.848 49.6779 107.539 49.51 108.235 49.4814C108.746 49.4604 109.167 49.5129 109.498 49.6389C109.997 49.3393 110.456 49.1809 110.874 49.1638C111.617 49.1333 112.28 49.4085 112.862 49.9895C113.444 50.5704 113.751 51.2556 113.784 52.0452C113.824 53.0206 113.414 53.805 112.554 54.3985C112.384 54.7777 112.026 55.1181 111.48 55.4196C110.932 55.6747 110.333 55.8155 109.683 55.8422C109.032 55.8689 108.517 55.7737 108.136 55.5567C107.779 55.9435 107.305 56.2886 106.713 56.5921C106.118 56.8491 105.519 56.9899 104.915 57.0147C103.987 57.0528 103.256 56.8269 102.724 56.3369C101.969 57.2053 100.964 57.6652 99.7104 57.7167C99.4782 57.7262 99.0815 57.6959 98.5204 57.6259C97.6143 58.2214 96.7201 58.5372 95.8376 58.5734C95.141 58.6019 94.5295 58.4409 94.0034 58.0903C93.5249 58.9008 92.798 59.3261 91.8226 59.3661C90.9866 59.4004 90.2302 59.1057 89.5533 58.4822C88.9228 57.8567 88.6824 57.0989 88.832 56.2089C88.5419 55.9416 88.3157 55.5322 88.1535 54.9806C87.9913 54.4289 87.8988 53.8745 87.876 53.3171C87.8588 52.8991 87.8697 52.5963 87.9085 52.4086C87.2799 51.8296 86.9361 50.8202 86.8771 49.3804C86.8523 48.7766 86.8991 48.2164 87.0175 47.6998C87.134 47.1367 87.2803 46.7353 87.4566 46.4954C87.2053 46.0405 87.0692 45.5576 87.0483 45.0467C87.0387 44.8145 87.0728 44.5107 87.1505 44.1353C86.7153 43.7344 86.4834 43.1857 86.4549 42.489C86.4282 41.8388 86.5698 41.3212 86.8797 40.9363C86.6284 40.4814 86.4952 40.0681 86.4799 39.6966C86.459 39.1857 86.6015 38.6913 86.9076 38.2136C86.5017 37.3928 86.2826 36.5876 86.2502 35.7981C86.2102 34.8227 86.474 33.8814 87.0416 32.9742C86.7382 32.3819 86.4523 31.6492 86.1839 30.7763C85.9619 29.9015 85.8347 29.0693 85.8023 28.2797C85.7414 26.7934 86.0478 25.7574 86.7216 25.1715C86.4475 24.1592 86.3095 23.6298 86.3076 23.5834C85.9832 22.4801 85.8115 21.6963 85.7924 21.2318C85.7638 20.5352 85.8921 19.6925 86.1772 18.7038C85.9317 18.3882 85.724 17.8617 85.5542 17.1243C85.3843 16.3869 85.316 15.8547 85.3491 15.5277C84.7689 14.9932 84.4626 14.3312 84.4302 13.5416C84.4055 12.9378 84.5684 12.3729 84.919 11.8467C85.3141 11.2723 85.833 10.8788 86.4756 10.6663C86.7874 10.3279 87.2182 10.0543 87.7679 9.84571C88.3157 9.59063 88.8915 9.4507 89.4953 9.42594C90.2849 9.39356 90.9669 9.57494 91.5414 9.97009C92.3214 9.70548 93.1062 9.55698 93.8958 9.5246C95.0104 9.47888 95.9266 9.69718 96.6442 10.1795C97.0546 9.97658 97.5385 9.86369 98.0958 9.84084C98.6067 9.81988 99.0063 9.9198 99.2944 10.1406C99.5636 9.89694 100.232 9.75321 101.301 9.7094C102.694 9.65225 103.795 9.83971 104.603 10.2718C105.093 9.73993 105.71 9.45877 106.453 9.42829C106.918 9.40925 107.456 9.50345 108.07 9.71091Z" fill="#333B8B"/>
<path d="M158.85 49.0803C158.85 49.0803 159.251 49.2267 160.054 49.5194C160.904 49.8103 161.273 50.8884 161.164 52.7538C161.365 53.1178 161.475 53.532 161.494 53.9964C161.524 54.7395 161.247 55.3557 160.663 55.8449C160.078 56.3341 159.391 56.5949 158.601 56.6273C157.904 56.6559 157.292 56.4716 156.764 56.0746C156.281 55.6292 156.022 54.9885 155.987 54.1525C155.473 54.0805 154.922 53.7076 154.336 53.0338C153.795 52.3117 153.509 51.579 153.479 50.8359C153.471 50.6501 153.506 50.3695 153.584 49.9942C153.11 49.781 152.673 49.3337 152.273 48.6523C151.917 47.9225 151.653 47.1657 151.482 46.3818C151.31 45.598 151.241 45.0425 151.274 44.7155C150.658 44.4616 150.143 43.8081 149.728 42.7551C149.357 41.6538 149.202 40.7064 149.262 39.9131C148.943 40.0657 148.551 40.1516 148.086 40.1706C147.158 40.2087 146.287 39.9653 145.475 39.4404C144.895 40.0689 144.002 40.4079 142.795 40.4575C141.68 40.5032 140.879 40.2569 140.392 39.7186C139.809 40.2543 139.169 40.5364 138.472 40.5649C137.915 40.5878 137.469 40.4898 137.134 40.2709C136.819 40.5165 136.336 40.6526 135.686 40.6792C135.128 40.7021 134.567 40.6321 134.002 40.4691C133.437 40.3062 132.986 40.0689 132.647 39.7571C132.601 39.759 132.486 39.8102 132.305 39.9107C132.619 40.7817 132.791 41.5656 132.82 42.2623C132.863 43.3305 132.367 44.2813 131.332 45.1147C131.533 45.4786 131.644 45.916 131.665 46.4269C131.706 47.4487 131.398 48.4384 130.74 49.3958C130.081 50.3533 129.428 50.8918 128.782 51.0114C128.985 51.4218 129.098 51.9056 129.121 52.463C129.172 53.717 128.802 54.8952 128.01 55.9978C127.215 57.0538 126.215 57.6066 125.007 57.6562C124.682 57.6695 124.426 57.6568 124.238 57.6179C123.634 57.6427 123.162 57.476 122.822 57.1177C122.481 56.7595 122.299 56.2785 122.274 55.6747C122.257 55.2567 122.353 54.7643 122.562 54.1974C122.508 54.0135 122.474 53.7358 122.458 53.3643C122.42 52.4354 122.851 51.6035 123.752 50.8688C123.7 50.7313 123.668 50.5233 123.656 50.2446C123.628 49.5479 123.762 48.8446 124.058 48.1346C124.399 47.3762 124.844 46.8695 125.392 46.6144C125.341 46.5234 125.31 46.3154 125.296 45.9903C125.264 45.2007 125.412 44.2874 125.742 43.2504C126.07 42.1669 126.463 41.546 126.922 41.3876C126.745 39.3478 127.334 37.2534 128.688 35.1043C128.644 34.0361 128.766 33.0309 129.053 32.0886C129.338 31.0999 129.89 30.3795 130.709 29.9272C130.719 29.0428 130.892 28.1518 131.227 27.2541C131.563 26.3564 131.95 25.5961 132.39 24.9733C132.229 24.4681 132.141 24.0065 132.124 23.5885C132.097 22.9383 132.192 22.4226 132.409 22.0415C132.671 21.6121 132.962 21.3443 133.283 21.2381C133.229 21.0542 133.195 20.7765 133.179 20.4049C133.137 19.3831 133.476 18.5551 134.194 17.9208L134.107 17.5057C134.079 16.809 134.332 16.1706 134.866 15.5904C134.812 15.4065 134.778 15.152 134.765 14.8269C134.731 13.9909 134.905 13.1463 135.289 12.2931C135.673 11.44 136.114 10.8636 136.614 10.564C137.402 9.36857 138.261 8.75182 139.19 8.71372C139.608 8.69658 140.148 8.814 140.809 9.066C142.158 9.05721 143.176 10.0622 143.864 12.081C144.303 12.5748 144.63 13.1662 144.844 13.8552C145.056 14.4979 145.151 15.0988 145.127 15.658C145.557 15.9196 145.874 16.2787 146.079 16.7356C146.33 17.1905 146.443 17.6744 146.417 18.1872C146.899 18.5861 147.32 19.2201 147.682 20.0893C148.089 20.9565 148.309 21.7849 148.342 22.5744C148.357 22.946 148.344 23.2024 148.304 23.3436C148.642 23.6554 148.94 24.1084 149.197 24.7027C149.5 25.2951 149.662 25.8467 149.683 26.3576C149.695 26.6362 149.68 26.8462 149.639 26.9874C150.26 27.3807 150.775 28.0109 151.182 28.8781C151.637 29.7434 151.951 30.6145 152.127 31.4912C152.347 32.3196 152.417 32.8982 152.338 33.2272C152.436 33.3627 152.706 33.7006 153.147 34.2408C153.586 34.7345 153.933 35.2553 154.188 35.8031C154.441 36.3045 154.577 36.7874 154.596 37.2518C154.613 37.6698 154.579 37.9736 154.494 38.1632C154.689 38.3878 154.91 38.6579 155.155 38.9735C155.399 39.2427 155.595 39.4905 155.744 39.717C155.893 39.9435 155.974 40.2193 155.987 40.5444C156.001 40.8696 155.987 41.1027 155.946 41.244C156.333 41.6003 156.678 42.0746 156.982 42.667C157.285 43.2593 157.448 43.8342 157.471 44.3915C157.49 44.856 157.412 45.2081 157.235 45.448C157.762 45.7986 158.178 46.3165 158.485 47.0018C158.793 47.687 158.914 48.3799 158.85 49.0803ZM145.411 34.4882C145.492 34.2058 145.695 34.0346 146.018 33.9749C146.339 33.8686 146.619 33.8804 146.857 34.0102C146.753 33.7354 146.698 33.5283 146.692 33.3889C146.677 33.0174 146.758 32.7349 146.936 32.5415C146.505 32.2335 146.139 31.8298 145.84 31.3304C145.587 30.829 145.473 30.3219 145.498 29.8091C145.169 29.7295 144.858 29.5097 144.564 29.1496C144.315 28.7411 144.18 28.3046 144.161 27.8402C144.156 27.7008 144.192 27.4435 144.269 27.0681C143.269 26.5043 142.744 25.6187 142.695 24.4111C142.676 23.9466 142.724 23.4097 142.838 22.8002C142.79 22.7556 142.67 22.6675 142.478 22.5358C142.285 22.3576 142.204 22.0818 142.235 21.7083C141.295 21.4678 140.823 20.7427 140.82 19.5333C140.441 19.3627 140.125 19.0268 139.871 18.5254C140.008 19.5898 139.624 20.443 138.72 21.0849C138.788 21.5939 138.719 22.1782 138.513 22.838C138.307 23.4977 138.049 23.9968 137.737 24.3353C137.791 24.5192 137.827 24.8201 137.844 25.2381C137.888 26.3063 137.504 27.741 136.694 29.5421C136.483 30.0625 136.316 30.5346 136.194 30.9583C136.027 31.4304 135.838 31.9034 135.624 32.3774C135.458 32.8494 135.216 33.2083 134.901 33.4538C134.92 33.9183 134.844 34.3401 134.674 34.7193L135.228 34.6267C135.693 34.6077 136.046 34.7095 136.287 34.9322C136.417 34.6943 136.691 34.5667 137.109 34.5496C137.388 34.5382 137.6 34.5993 137.745 34.7329C138.285 34.292 138.973 34.0544 139.809 34.0202C140.413 33.9954 140.974 34.0654 141.492 34.2302C142.011 34.3951 142.439 34.6334 142.778 34.9452C143.221 34.4152 143.699 34.1398 144.209 34.1188C144.535 34.1055 144.935 34.2286 145.411 34.4882Z" fill="#5A308C"/>
<path d="M191.26 6.57815C191.893 6.13347 192.628 5.89399 193.464 5.85971C194.114 5.83304 194.654 5.95047 195.083 6.21199C196.005 5.98811 196.781 6.18891 197.411 6.81438C198.086 7.39149 198.441 8.09806 198.475 8.93407C198.503 9.63074 198.272 10.2218 197.78 10.7072C197.335 11.1907 196.647 11.4515 195.719 11.4896C195.115 11.5143 194.648 11.4869 194.319 11.4074C193.826 11.8463 193.114 12.0849 192.186 12.123C191.164 12.1649 190.226 11.994 189.373 11.6103C189.102 11.8075 188.598 11.991 187.86 12.1608C187.123 12.3306 186.406 12.4298 185.709 12.4584C185.245 12.4774 184.825 12.4481 184.45 12.3705C184.846 12.959 185.063 13.7177 185.101 14.6466C185.141 15.622 184.96 16.304 184.557 16.6927C185.288 17.5001 185.681 18.5773 185.736 19.9242C185.773 20.8067 185.62 21.6271 185.279 22.3854C185.795 23.6204 186.078 24.8417 186.127 26.0492C186.16 26.8388 186.095 27.5393 185.934 28.1507C186.178 28.4198 186.382 28.8534 186.546 29.4515C186.756 30.0477 186.874 30.6477 186.899 31.2514C186.927 31.9481 186.813 32.5576 186.555 33.0799C187.278 33.7016 187.669 34.7091 187.726 36.1024C187.764 37.0313 187.678 37.7792 187.469 38.3461C187.914 38.9792 188.157 39.8066 188.199 40.8284C188.224 41.4322 188.129 41.9711 187.916 42.445C188.166 42.8535 188.305 43.4293 188.336 44.1724C188.364 44.8691 188.293 45.407 188.123 45.7862C188.606 46.2316 188.869 46.9652 188.911 47.987C188.928 48.405 188.875 48.8027 188.751 49.1799C189.383 49.8518 189.667 50.538 189.603 51.2385C189.858 51.7863 189.993 52.246 190.008 52.6176C190.041 53.4072 189.765 54.0698 189.183 54.6054C188.6 55.1411 187.913 55.4251 187.124 55.4575C186.52 55.4822 185.979 55.3416 185.502 55.0355C185.068 54.6811 184.767 54.1352 184.597 53.3978C184.259 53.086 183.984 52.632 183.773 52.0359C183.563 51.4397 183.446 50.863 183.423 50.3056C183.41 49.9805 183.442 49.6303 183.52 49.2549C182.988 48.765 182.695 47.8698 182.642 46.5693C182.617 45.9655 182.647 45.5456 182.73 45.3096C182.285 44.6765 182.053 44.1277 182.034 43.6633C182.008 43.013 182.239 42.422 182.729 41.8901C182.06 41.4524 181.705 40.7458 181.665 39.7705C181.633 38.9809 181.794 38.3695 182.148 37.9362C181.483 37.5913 181.118 36.6293 181.053 35.0502C181.017 34.1678 181.081 33.4673 181.246 32.9488C181.002 32.6796 180.776 32.2702 180.568 31.7205C180.404 31.1224 180.309 30.5215 180.284 29.9177C180.258 29.2674 180.331 28.776 180.503 28.4432C180.051 27.6244 179.801 26.6344 179.753 25.4732C179.725 24.7766 179.776 23.7742 179.909 22.4661C179.548 21.597 179.346 20.6515 179.304 19.6297C179.266 18.7008 179.374 17.9288 179.628 17.3136C179.048 16.7791 178.727 15.7687 178.666 14.2825C178.638 13.5858 178.681 12.956 178.798 12.3929C178.298 12.6925 177.793 12.8528 177.282 12.8738C176.772 12.8947 176.279 12.7986 175.805 12.5854C175.488 12.7845 175.05 12.8955 174.493 12.9184C173.564 12.9565 172.905 12.7741 172.516 12.3714C172.294 12.6131 171.953 12.8132 171.494 12.9716C171.036 13.13 170.551 13.2196 170.04 13.2406C168.879 13.2882 168.078 13.0419 167.637 12.5017C167.36 12.5596 166.989 12.5981 166.525 12.6171C165.364 12.6647 164.496 12.491 163.922 12.0958C163.347 11.7007 163.046 11.1548 163.017 10.4581C162.985 9.66852 163.326 8.91017 164.04 8.18301C164.753 7.40942 165.62 7.00167 166.642 6.95976C167.106 6.94071 167.645 7.03492 168.259 7.24238C168.613 6.80913 169.324 6.57061 170.393 6.5268C171.275 6.4906 171.955 6.62554 172.433 6.9316C172.791 6.59125 173.435 6.40203 174.364 6.36393C174.967 6.33917 175.551 6.38502 176.114 6.5015C176.723 6.61607 177.172 6.78375 177.46 7.00455C177.766 6.52677 178.616 6.2593 180.01 6.20216C181.264 6.15073 182.062 6.32735 182.404 6.73202C182.76 6.34522 183.403 6.13277 184.332 6.09467C185.214 6.05848 185.78 6.24462 186.029 6.6531C186.57 6.21224 187.374 5.9699 188.442 5.92609C189.65 5.87657 190.589 6.09392 191.26 6.57815Z" fill="#272425"/>
<path d="M213.439 15.2988C213.709 16.2182 213.857 16.9798 213.881 17.5836C213.891 17.8158 213.868 18.3983 213.813 19.331C214.065 19.7859 214.21 20.501 214.25 21.4764C214.285 22.3124 214.195 22.9674 213.982 23.4413C214.233 23.8963 214.368 24.3327 214.385 24.7507C214.409 25.3545 214.224 25.9437 213.829 26.5181C214.187 27.2944 214.382 28.1005 214.417 28.9365C214.443 29.5867 214.357 30.3114 214.157 31.1105C214.455 31.5635 214.618 32.1383 214.646 32.835C214.675 33.5317 214.544 34.3047 214.253 35.1541C214.646 35.6497 214.853 36.1762 214.876 36.7335C214.899 37.2909 214.735 37.8326 214.384 38.3588C214.584 38.6762 214.692 39.044 214.709 39.462C214.726 39.88 214.628 40.326 214.415 40.8C214.813 41.435 215.019 41.915 215.032 42.2401C215.044 42.5188 214.897 42.9203 214.593 43.4445C214.806 44.0871 214.918 44.571 214.932 44.8961C214.96 45.5927 214.73 46.207 214.24 46.7389C214.837 47.6913 215.164 48.8643 215.221 50.2576C215.292 51.9761 214.853 53.1804 213.904 53.8707C213.453 54.2148 212.972 54.3974 212.461 54.4183C211.579 54.4545 210.819 54.0902 210.183 53.3254C209.592 52.5123 209.276 51.618 209.236 50.6427C209.217 50.1782 209.268 49.7341 209.39 49.3104C208.95 48.7702 208.708 47.9892 208.666 46.9674C208.624 45.9456 208.803 45.194 209.202 44.7124C209.099 44.4839 209.04 44.1607 209.023 43.7427C209.009 43.4176 209.022 43.1612 209.061 42.9735C208.813 42.6115 208.677 42.1286 208.652 41.5248C208.622 40.7817 208.782 40.1471 209.133 39.6209C208.746 39.2646 208.54 38.7845 208.515 38.1808C208.498 37.7628 208.596 37.3168 208.809 36.8428C208.608 36.4789 208.491 35.8789 208.456 35.0429C208.414 34.0211 208.62 33.3613 209.073 33.0636C208.574 32.2466 208.309 31.4434 208.276 30.6538C208.259 30.2358 208.359 29.8363 208.576 29.4552C208.224 28.8183 208.031 28.0818 207.997 27.2458C207.957 26.2705 208.156 25.4482 208.594 24.7789C208.391 24.3685 208.282 23.9775 208.266 23.606C208.253 23.2809 208.377 22.9036 208.639 22.4741C208.246 21.9785 208.038 21.4288 208.013 20.825C207.992 20.3141 208.117 19.96 208.388 19.7628C208.048 19.4046 207.862 18.8539 207.832 18.1108C207.809 17.5535 207.931 17.1298 208.198 16.8397C207.754 16.2066 207.507 15.2862 207.457 14.0787C207.413 13.0104 207.545 12.2606 207.853 11.8293C207.405 11.1033 207.161 10.2759 207.123 9.347C207.089 8.51099 207.25 7.89958 207.606 7.51279C207.62 6.72132 207.897 6.08193 208.435 5.59462C208.971 5.06086 209.611 4.77875 210.354 4.74827C210.865 4.72732 211.335 4.8476 211.765 5.10913C212.668 5.58383 213.142 6.3553 213.186 7.42354C213.222 8.30599 213.025 9.17475 212.595 10.0298C213.242 11.0733 213.593 12.2452 213.646 13.5457C213.673 14.1959 213.604 14.7803 213.439 15.2988Z" fill="#CB2229"/>
<path d="M255.492 2.33877C256.289 2.49216 256.908 2.83896 257.349 3.37916C257.79 3.91935 258.025 4.56101 258.056 5.30413C258.103 6.46525 257.704 7.50514 256.858 8.42379C257.243 8.73366 257.451 9.28338 257.484 10.0729C257.516 10.8625 257.386 11.6587 257.093 12.4616C256.8 13.2645 256.472 13.7665 256.108 13.9675C256.597 14.5523 256.862 15.3323 256.902 16.3076C256.938 17.1901 256.787 18.0337 256.447 18.8385C256.153 19.595 255.731 20.0775 255.181 20.2862C255.479 20.7392 255.643 21.3373 255.673 22.0804C255.698 22.6842 255.607 23.2927 255.399 23.906C255.19 24.4729 254.882 24.9042 254.475 25.2C254.671 25.4246 254.781 25.8388 254.805 26.4426C254.836 27.1857 254.704 27.9355 254.409 28.692C254.113 29.402 253.669 29.9319 253.079 30.2818C253.469 30.731 253.677 31.2575 253.702 31.8613C253.728 32.5115 253.593 33.1684 253.294 33.832C253.04 34.4472 252.687 34.9037 252.234 35.2014C252.585 35.8383 252.779 36.598 252.816 37.4804C252.856 38.4558 252.754 39.3904 252.512 40.2843C252.269 41.1781 251.924 41.8204 251.474 42.211C251.586 42.6716 251.647 43.0181 251.657 43.2503C251.695 44.1792 251.333 45.0082 250.572 45.7372C250.642 46.2927 250.531 46.9951 250.24 47.8444C249.994 48.6454 249.694 49.2857 249.342 49.7654C249.469 50.5976 249.15 51.3318 248.385 51.968C247.667 52.6022 246.797 52.9403 245.775 52.9822C244.8 53.0222 243.951 52.7546 243.23 52.1794C242.507 51.5578 242.071 50.5754 241.923 49.2323C241.352 48.93 240.894 48.5301 240.548 48.0326C240.2 47.4886 240.013 46.9147 239.988 46.3109C239.973 45.9393 240.029 45.5881 240.155 45.2573C239.588 45.0479 239.131 44.6945 238.785 44.1969C238.484 43.651 238.367 43.0742 238.435 42.4666C237.756 41.7966 237.393 40.8811 237.345 39.7199C237.325 39.209 237.333 38.8365 237.369 38.6024C236.656 38.213 236.1 37.7008 235.701 37.0658C235.348 36.3824 235.156 35.6692 235.125 34.9261C235.108 34.5081 235.119 34.2052 235.158 34.0175C234.249 33.4035 233.768 32.4695 233.717 31.2155C233.7 30.7975 233.71 30.4714 233.746 30.2373C233.274 30.0705 232.862 29.6687 232.511 29.0318C232.203 28.3466 232.06 27.6779 232.08 27.0258C231.697 26.7623 231.326 26.2425 230.969 25.4663C230.609 24.6436 230.415 23.8839 230.387 23.1872C229.35 22.8576 228.804 22.0193 228.748 20.6724C228.735 20.3473 228.765 19.9506 228.839 19.4823C227.74 18.783 227.173 17.9922 227.137 17.1097C227.125 16.831 227.139 16.5978 227.178 16.4102C226.839 16.0984 226.544 15.6918 226.29 15.1904C226.035 14.6426 225.897 14.1133 225.876 13.6024C225.867 13.3701 225.903 13.1128 225.984 12.8303C225.557 12.6152 225.192 12.2347 224.891 11.6888C224.634 11.0946 224.493 10.4955 224.468 9.89176C224.438 9.14864 224.581 8.67752 224.899 8.47841C224.307 7.66526 223.998 6.93357 223.971 6.28334C223.941 5.54022 224.171 4.92595 224.663 4.44055C225.155 3.95515 225.773 3.69721 226.516 3.66673C227.352 3.63244 228.087 3.97448 228.721 4.69284C229.402 5.40929 229.795 6.48646 229.9 7.92435C230.473 8.27305 230.938 8.83552 231.296 9.61174C231.698 10.3396 231.914 11.0751 231.944 11.8182C231.958 12.1434 231.945 12.3998 231.906 12.5874C232.335 12.849 232.676 13.2072 232.927 13.6621C233.176 14.0706 233.311 14.5071 233.33 14.9715C233.351 15.4824 233.253 15.9284 233.036 16.3095C234.181 17.0069 234.776 17.9129 234.822 19.0276C234.832 19.2598 234.799 19.6101 234.726 20.0783C235.105 20.2489 235.421 20.5848 235.674 21.0862C235.974 21.5857 236.136 22.1373 236.161 22.7411C236.174 23.0662 236.161 23.3226 236.122 23.5103C237.076 24.076 237.584 25.1252 237.647 26.6578C238.164 26.7762 238.695 27.2429 239.24 28.058C239.783 28.8266 240.073 29.6521 240.109 30.5346L240.065 31.1645C240.545 31.517 240.941 32.1055 241.254 32.9301C241.565 33.7082 241.689 34.4475 241.624 35.148C242.056 35.456 242.353 35.909 242.517 36.5071C242.726 37.0568 242.894 37.7478 243.021 38.58C243.545 38.8841 243.935 39.3101 244.19 39.8579C244.49 40.3574 244.604 40.8877 244.534 41.4489C245.072 42.0781 245.356 42.7643 245.387 43.5075C245.613 43.3586 245.745 43.1671 245.782 42.933C245.549 40.6629 245.84 39.2552 246.655 38.7101C246.311 38.2589 246.125 37.6851 246.096 36.9884C246.071 36.3846 246.165 35.8225 246.376 35.3021C246.632 34.7333 246.918 34.3494 247.236 34.1502C247.132 33.8754 247.074 33.5986 247.062 33.32C247.039 32.7626 247.108 32.1782 247.269 31.5668C247.477 30.9535 247.739 30.5473 248.057 30.3482C247.902 29.9824 247.817 29.6137 247.802 29.2421C247.756 28.1274 248.094 27.2762 248.814 26.6883C248.57 26.4192 248.436 25.9827 248.411 25.379C248.383 24.6823 248.493 23.9567 248.741 23.2021C249.034 22.3992 249.358 21.8044 249.714 21.4176C249.454 20.7304 249.311 20.085 249.286 19.4812C249.233 18.1807 249.606 17.0721 250.406 16.1554C250.249 15.7431 250.16 15.2583 250.137 14.7009C250.099 13.772 250.25 12.9284 250.591 12.17C250.979 11.4098 251.498 11.0163 252.148 10.9896C251.413 10.0893 251.029 9.22114 250.994 8.38513C250.956 7.45623 251.319 6.65048 252.081 5.96786C252.026 5.73754 251.99 5.4366 251.975 5.06504C251.94 4.22903 252.123 3.57023 252.522 3.08864C252.965 2.55869 253.605 2.27658 254.441 2.24229C254.673 2.23276 255.023 2.26492 255.492 2.33877Z" fill="#3BFF2D"/>
<path d="M289.518 2.26914C289.969 1.92498 290.566 1.73766 291.309 1.70718C292.378 1.66337 293.46 1.9679 294.557 2.62076C295.068 2.59981 295.494 2.79166 295.837 3.19633C296.179 3.601 296.362 4.10523 296.387 4.70902C296.42 5.49858 296.216 6.20478 295.776 6.82762C295.337 7.45045 294.699 7.77901 293.863 7.8133C293.259 7.83806 292.601 7.67895 291.889 7.33596C291.533 7.72276 291.053 7.92854 290.449 7.95331C289.799 7.97997 289.116 7.77537 288.4 7.33949C287.945 7.59076 287.253 7.73545 286.324 7.77355C284.977 7.82879 283.924 7.66265 283.164 7.27512C282.48 7.6288 281.767 7.82089 281.024 7.85136C280.42 7.87613 279.836 7.80705 279.271 7.64413C278.677 7.90111 278.101 8.04104 277.543 8.0639C276.8 8.09437 276.049 7.91585 275.288 7.52832C274.471 8.02706 273.74 8.33621 273.093 8.45577C273.451 9.232 273.649 10.0846 273.687 11.0135C273.734 12.1746 273.517 13.114 273.035 13.8316C273.628 14.6912 273.947 15.6551 273.991 16.7233C274.025 17.5593 273.85 18.4039 273.466 19.2571C273.904 19.7044 274.136 20.2764 274.165 20.9731C274.184 21.4375 274.044 22.0015 273.746 22.6651C274.154 22.4157 274.66 22.2786 275.264 22.2539C275.729 22.2348 276.056 22.2679 276.245 22.3532C276.741 21.9607 277.291 21.7521 277.894 21.7273C278.498 21.7025 279.112 21.9332 279.737 22.4193C280.289 22.2572 280.75 22.1684 281.122 22.1532C281.354 22.1437 281.751 22.1739 282.312 22.244C282.866 22.1282 283.258 22.0656 283.491 22.0561C284.28 22.0237 284.868 22.1856 285.255 22.542C285.617 22.2945 286.031 22.1612 286.495 22.1422C287.052 22.1193 287.405 22.2212 287.554 22.4477C287.967 22.2912 288.289 22.2082 288.521 22.1987C288.846 22.1853 289.291 22.2601 289.856 22.423C290.447 22.0732 291.02 21.8868 291.578 21.8639C292.367 21.8316 293.053 22.1058 293.635 22.6868C294.216 23.2212 294.52 23.8368 294.548 24.5335C294.573 25.1373 294.385 25.6567 293.984 26.0919C293.583 26.527 292.943 26.7859 292.062 26.8686C291.667 27.4431 290.982 27.7503 290.006 27.7903C289.124 27.8265 288.325 27.6266 287.609 27.1908C287.164 27.6743 286.5 27.9341 285.617 27.9703C284.828 28.0027 284.17 27.8436 283.644 27.493C283.284 27.7869 282.895 27.9424 282.477 27.9595C282.198 27.971 281.962 27.8876 281.769 27.7095C281.277 28.1949 280.59 28.4557 279.707 28.4918C279.057 28.5185 278.447 28.4039 277.879 28.1481C277.424 28.3994 277.034 28.5317 276.709 28.545C276.244 28.5641 275.773 28.4206 275.295 28.1145C274.978 28.3136 274.727 28.4402 274.543 28.4943C274.359 28.5483 274.104 28.5588 273.777 28.5257C274.229 29.3446 274.465 29.9862 274.484 30.4507C274.501 30.8687 274.382 31.3621 274.126 31.9308C274.466 32.2891 274.648 32.7469 274.671 33.3042C274.688 33.7222 274.59 34.1682 274.377 34.6422C274.717 35.0004 274.9 35.4814 274.924 36.0852C274.947 36.6425 274.804 37.1136 274.494 37.4985C274.795 38.0444 274.953 38.48 274.966 38.8051C274.977 39.0837 274.811 39.5558 274.466 40.2213C274.659 40.3994 274.763 40.6511 274.776 40.9762C274.793 41.3942 274.665 41.6786 274.392 41.8293C274.874 42.2283 275.128 42.7529 275.155 43.4031C275.164 43.6353 275.134 44.032 275.064 44.5932L275.479 44.5064C275.99 44.4854 276.534 44.6957 277.11 45.1373C277.786 44.5979 278.681 44.3053 279.796 44.2596C280.214 44.2424 280.657 44.2708 281.125 44.3446C281.39 44.0081 281.775 43.7364 282.278 43.5297C282.781 43.323 283.335 43.2072 283.938 43.1824C284.914 43.1424 285.665 43.321 286.194 43.718C286.453 43.2421 286.926 42.8506 287.611 42.5433C288.296 42.2361 288.987 42.0682 289.684 42.0396C290.195 42.0187 290.615 42.0712 290.946 42.1972C291.446 41.8976 291.904 41.7392 292.322 41.722C293.066 41.6916 293.728 41.9668 294.31 42.5477C294.892 43.1286 295.2 43.8139 295.232 44.6034C295.272 45.5788 294.862 46.3632 294.003 46.9568C293.832 47.3359 293.474 47.6763 292.928 47.9778C292.38 48.2329 291.781 48.3738 291.131 48.4004C290.481 48.4271 289.965 48.332 289.584 48.115C289.228 48.5018 288.753 48.8469 288.161 49.1503C287.567 49.4073 286.968 49.5482 286.364 49.5729C285.435 49.611 284.705 49.3851 284.173 48.8952C283.417 49.7636 282.413 50.2235 281.159 50.2749C280.927 50.2844 280.53 50.2542 279.969 50.1841C279.063 50.7796 278.168 51.0954 277.286 51.1316C276.589 51.1602 275.978 50.9991 275.452 50.6485C274.973 51.4591 274.246 51.8843 273.271 51.9243C272.435 51.9586 271.679 51.664 271.002 51.0404C270.371 50.4149 270.131 49.6572 270.28 48.7671C269.99 48.4999 269.764 48.0904 269.602 47.5388C269.44 46.9872 269.347 46.4327 269.324 45.8754C269.307 45.4573 269.318 45.1545 269.357 44.9668C268.728 44.3878 268.385 43.3784 268.325 41.9386C268.301 41.3348 268.348 40.7746 268.466 40.258C268.582 39.6949 268.729 39.2935 268.905 39.0537C268.654 38.5987 268.518 38.1158 268.497 37.6049C268.487 37.3727 268.521 37.0689 268.599 36.6935C268.164 36.2927 267.932 35.7439 267.903 35.0472C267.877 34.397 268.018 33.8794 268.328 33.4945C268.077 33.0396 267.944 32.6264 267.928 32.2548C267.907 31.7439 268.05 31.2496 268.356 30.7718C267.95 29.951 267.731 29.1459 267.699 28.3563C267.659 27.3809 267.922 26.4397 268.49 25.5324C268.187 24.9401 267.901 24.2074 267.632 23.3345C267.41 22.4597 267.283 21.6275 267.251 20.8379C267.19 19.3517 267.496 18.3156 268.17 17.7297C267.896 16.7174 267.758 16.1881 267.756 16.1416C267.432 15.0384 267.26 14.2545 267.241 13.7901C267.212 13.0934 267.34 12.2507 267.626 11.262C267.38 10.9465 267.172 10.42 267.003 9.68255C266.833 8.94515 266.764 8.41293 266.797 8.08591C266.217 7.55143 265.911 6.88941 265.879 6.09984C265.854 5.49606 266.017 4.9311 266.367 4.40496C266.763 3.83048 267.281 3.43702 267.924 3.22457C268.236 2.88612 268.667 2.61258 269.216 2.40394C269.764 2.14886 270.34 2.00893 270.944 1.98417C271.733 1.95179 272.415 2.13317 272.99 2.52832C273.77 2.26371 274.555 2.11521 275.344 2.08283C276.459 2.03711 277.375 2.25542 278.093 2.73774C278.503 2.53481 278.987 2.42192 279.544 2.39907C280.055 2.37811 280.455 2.47803 280.743 2.69883C281.012 2.45517 281.681 2.31144 282.749 2.26763C284.142 2.21048 285.243 2.39795 286.052 2.83001C286.542 2.29816 287.158 2.017 287.901 1.98652C288.366 1.96748 288.905 2.06168 289.518 2.26914Z" fill="#309F85"/>
</svg>
